<svg width="108" height="102" viewBox="0 0 108 102" fill="none" xmlns="http://www.w3.org/2000/svg">
<g clip-path="url(#clip0_2721_144532)">
<path d="M43.0232 65.817C38.7475 65.8436 36.7979 63.2492 35.9224 59.4589C34.8792 59.4883 33.8952 59.3105 32.9521 58.9325C30.5401 57.9692 28.9598 56.2204 28.0886 53.8163C27.4035 51.9261 27.2216 49.9645 27.2921 47.972C27.4162 44.4647 28.1901 41.1029 29.6421 37.9021C30.3188 36.4124 31.2055 35.0444 32.2431 33.7101C26.5154 28.9831 23.9356 23.0311 25.0041 15.6676L25.1536 15.6144C25.1874 15.7278 25.2269 15.8399 25.2537 15.9547C25.4454 16.7696 25.585 17.5999 25.8359 18.3951C26.1996 19.5489 27.0257 20.3008 28.2084 20.557C29.6731 20.8748 30.4767 21.8661 31.042 23.1193C31.2013 23.4721 31.2774 23.8782 31.3126 24.2674C31.4141 25.3609 30.9701 26.1604 29.8381 26.5959C30.9433 28.6191 32.6998 29.9156 34.5099 31.194C35.1048 30.6871 35.6785 30.1747 36.2777 29.6916C38.8617 27.6068 41.7389 26.0036 44.7501 24.6216C47.3242 23.4399 49.9886 22.4864 52.6642 21.5637C52.7249 21.5427 52.7827 21.5161 52.8348 21.4251C52.45 21.4251 52.0623 21.3901 51.6831 21.4307C50.1676 21.5931 48.6578 21.7933 47.1424 21.9501C45.0673 22.1672 42.9893 22.359 40.9114 22.5578C40.4279 22.604 39.9415 22.6348 39.4862 22.6698C39.2 22.2456 39.1972 21.8675 39.2917 21.4671C39.5003 20.585 39.6977 19.7015 39.9063 18.7816C40.8029 18.3727 41.7164 17.9569 42.713 17.5018C42.4875 17.0762 42.2591 16.6309 42.0195 16.1927C41.4809 15.2098 40.9932 14.2059 40.7239 13.1124C40.1177 10.6537 40.9763 7.54673 43.2671 5.87914C44.2736 5.14686 45.4127 4.80802 46.6208 4.79962C48.0009 4.78842 49.3895 4.85003 50.7611 5.00405C52.8574 5.23927 54.9424 5.56551 57.0287 5.87914C58.8797 6.15778 60.7208 6.48821 62.5718 6.76544C63.6375 6.92506 64.7117 7.02307 65.7817 7.15189C66.0368 7.18269 66.292 7.22329 66.5937 7.2667C66.5937 8.35742 66.4316 9.39774 66.0749 10.4101C65.9805 10.6803 65.8014 10.8175 65.5279 10.8903C62.5788 11.673 59.796 12.9079 56.9949 14.0743C54.4067 15.1524 51.8678 16.3509 49.3119 17.5074C48.8524 17.7161 48.4168 17.9765 47.9981 18.3265C48.4238 18.3265 48.851 18.3573 49.2739 18.3209C52.2653 18.0633 55.2581 17.8169 58.2453 17.5172C60.319 17.31 62.3744 16.96 64.3832 16.3845C64.9429 16.2249 65.4842 15.9981 66.034 15.8007C66.1806 15.7488 66.3258 15.6956 66.5035 15.6312C66.8249 16.8172 66.6106 17.9373 66.3977 19.0532C66.3442 19.336 66.1031 19.4999 65.8268 19.6189C64.2366 20.305 62.6662 21.0358 61.0648 21.6911C56.4761 23.5701 51.8494 25.3609 47.2904 27.3043C43.9931 28.7101 40.8395 30.4155 37.9003 32.4835C37.748 32.5899 37.6028 32.7047 37.404 32.8532C37.5535 32.9722 37.6592 33.087 37.7903 33.1556C40.7986 34.7308 43.893 36.1183 47.1269 37.1698C51.0882 38.4594 55.0269 39.7993 58.8064 41.5621C61.764 42.9413 64.6201 44.4955 67.1985 46.5005C68.9014 47.825 70.4563 49.298 71.5855 51.1728C72.5187 52.7242 72.9318 54.3792 72.8416 56.1784C72.6809 59.3959 71.9901 62.4875 70.6283 65.4166C70.0545 66.6515 69.3299 67.7927 68.2163 68.637C67.1562 69.4406 66.0227 69.5611 64.7751 69.0962C62.3786 68.2043 62.1446 65.8885 62.7578 64.0528C63.1385 62.9145 63.7813 61.9078 64.5341 60.9795C65.2545 60.0918 66.0115 59.2321 66.7741 58.3794C67.0462 58.0742 67.2506 57.7549 67.3366 57.3531C67.4734 56.716 67.1914 56.2372 66.5542 56.1C65.7225 55.9207 64.933 56.0916 64.2987 56.6222C63.6784 57.1417 63.0567 57.7101 62.6112 58.3738C61.5864 59.9028 60.6447 61.4892 59.7128 63.0769C58.6866 64.8271 57.6335 66.5549 56.2872 68.0881C54.8197 69.7599 53.0251 70.915 50.8048 71.2286C47.8035 71.6529 45.3802 70.6126 43.8606 67.7507C43.5349 67.1388 43.3108 66.4751 43.0302 65.8128L43.0232 65.817ZM51.8931 51.6489L51.9072 51.6615C51.9382 51.1756 52.0158 50.6855 51.9918 50.2025C51.8945 48.2899 50.9585 47.5772 49.0399 48.3067C48.359 48.5657 47.8642 49.0656 47.4539 49.6424C46.2655 51.3156 45.0941 53.0014 43.9043 54.6746C42.4607 56.7062 40.6408 58.2562 38.2034 58.9983C37.8805 59.0963 37.5591 59.2027 37.1912 59.3203C37.7621 60.3998 38.5671 61.0999 39.6596 61.4542C41.1313 61.9316 42.6214 61.8686 44.1044 61.5158C46.3149 60.9907 48.0404 59.6788 49.4882 58.0182C50.7287 56.5928 51.8593 55.0736 53.0308 53.5881C53.9133 52.4679 54.7887 51.3394 55.8812 50.4083C56.2308 50.1101 56.6383 49.8553 57.0598 49.6662C57.9563 49.263 58.7754 49.5052 59.3477 50.2977C59.5098 50.5217 59.6691 50.7654 59.7551 51.0244C60.3627 52.853 60.1231 54.599 59.1757 56.2596C59.1292 56.3394 58.9826 56.3632 58.8402 56.4332C58.8882 56.0593 58.9431 55.7695 58.9586 55.4783C58.9727 55.1773 58.9925 54.8636 58.9333 54.5724C58.6584 53.238 58.1579 52.9328 57.0287 53.035C56.0673 53.1232 55.2948 53.6007 54.7168 54.3498C54.0895 55.1618 53.4932 55.9991 52.9166 56.8476C51.9876 58.2184 51.1136 59.6269 50.1648 60.9837C49.1414 62.4455 47.9685 63.7784 46.3811 64.6717C45.8779 64.9559 45.3408 65.1814 44.7881 65.4502C45.3577 66.1797 46.0569 66.6571 46.9168 66.8952C48.2518 67.2648 49.5657 67.0954 50.864 66.7047C53.0167 66.0565 54.7394 64.7641 56.2506 63.1553C57.9183 61.3813 59.3872 59.4505 60.8152 57.4875C61.6117 56.3926 62.4026 55.2921 63.24 54.2279C63.9378 53.3416 64.7258 52.5338 65.855 52.1879C66.55 51.9751 67.2436 51.9429 67.861 52.4147C68.5673 52.9552 69.0085 53.7239 69.0565 54.5556C69.1678 56.4878 68.9197 58.3878 67.7257 60.0106C66.7882 61.2847 65.7789 62.5057 64.7991 63.749C64.5284 64.0934 64.3001 64.4799 64.5045 64.9055C64.73 65.376 65.2065 65.306 65.6252 65.2388C68.1458 64.8355 69.8741 63.4788 70.6396 61.0257C71.1654 59.3413 71.0442 57.6373 70.7495 55.9207C70.4225 54.0151 69.4723 52.5086 68.026 51.2498C66.6783 50.0779 65.2164 49.0782 63.6784 48.1765C60.1414 46.1 56.4028 44.4311 52.6304 42.8419C49.1188 41.3619 45.5705 39.966 42.0589 38.4846C39.5637 37.4331 36.9825 36.5748 34.5987 35.2656C34.5804 35.2558 34.5522 35.2656 34.5099 35.2656C34.4648 35.2936 34.3971 35.3202 34.3492 35.3664C31.2337 38.3348 29.1896 41.8324 28.8724 46.2023C28.7498 47.8936 28.8809 49.5374 29.425 51.1574C30.3794 54.0039 33.3863 55.9879 36.7133 55.2655C39.3706 54.6886 41.5444 53.3949 43.3418 51.4374C44.6683 49.9939 45.8962 48.4593 47.2171 47.0087C47.8909 46.2695 48.6127 45.5484 49.4148 44.9561C50.7625 43.9634 52.168 44.4058 52.7319 45.9656C53.4424 47.9328 53.1041 49.8077 52.0651 51.5845C52.0412 51.6237 51.9552 51.6279 51.8974 51.6475L51.8931 51.6489ZM58.6133 10.3288C58.32 10.298 58.0268 10.2756 57.735 10.2336C56.8314 10.1048 55.9263 9.9886 55.0284 9.82899C53.3014 9.52375 51.5858 9.16251 49.8547 8.88388C48.0855 8.59825 46.3022 8.57165 44.5316 8.90348C43.0542 9.18071 41.9025 10.5781 41.8644 12.079C41.8165 13.9594 42.8202 15.48 43.549 17.1812C48.2687 14.1471 53.5228 12.4697 58.6133 10.3288Z" fill="#D8A663"/>
<path d="M71.0582 68.4453C71.3486 67.7872 71.6362 67.1277 71.9322 66.4725C73.2898 63.4607 74.0919 60.3258 73.996 57.0074C73.9622 55.8453 73.8325 54.6817 73.6845 53.528C73.559 52.5479 73.1178 51.6686 72.6188 50.8215C71.3176 48.6079 69.5244 46.8717 67.4296 45.3959C64.3409 43.2201 61.0858 41.3481 57.6306 39.8135C57.4615 39.7379 57.2979 39.6497 57.133 39.5657C57.1217 39.5601 57.1231 39.5293 57.1062 39.455C57.8646 39.119 58.5357 38.6346 59.1249 38.0311C59.2462 37.9065 59.4534 37.8603 59.6282 37.7945C62.91 36.5581 66.1961 35.3302 69.4737 34.084C69.7979 33.9608 70.0883 33.9398 70.4111 34.0378C74.3753 35.2294 78.3394 36.4209 82.3049 37.604C85.1497 38.4525 87.9988 39.2884 90.8464 40.1313C90.9127 40.1509 90.9761 40.1775 91.1058 40.2237C91.0452 40.8566 91.0015 41.5035 90.9183 42.1447C90.4996 45.4127 89.6792 48.5785 88.3667 51.6084C86.9288 54.931 84.9622 57.9189 82.4826 60.5694C79.3276 63.9396 75.5848 66.4963 71.4022 68.4411C71.319 68.4803 71.2274 68.5013 71.14 68.5307C71.1146 68.5027 71.0878 68.4747 71.0596 68.4495L71.0582 68.4453Z" fill="#D8A663"/>
<path d="M91.2116 36.7428C90.2036 36.4488 89.2634 36.1757 88.3259 35.8985C83.327 34.4228 78.3282 32.9456 73.3293 31.4712C72.3665 31.187 71.3938 30.9336 70.4408 30.6171C70.0489 30.4869 69.7176 30.5345 69.3581 30.6689C66.9686 31.565 64.5778 32.4541 62.1869 33.3432C62.0403 33.3978 61.8908 33.4398 61.6653 33.5112C61.709 33.2438 61.7442 33.0492 61.771 32.8532C61.9811 31.3186 61.3016 30.1425 60.2231 29.1456C59.5422 28.5169 58.726 28.1122 57.8365 27.8532C57.3868 27.7216 56.9385 27.59 56.4958 27.4388C56.0701 27.2932 55.6979 27.0705 55.478 26.5693C55.8305 26.4279 56.1632 26.2864 56.5001 26.1576C60.3881 24.6721 64.2803 23.1991 68.1641 21.7009C69.9023 21.0303 69.8924 21.0163 71.7039 21.5609C76.8296 23.0997 81.9568 24.6315 87.0825 26.1688C87.8226 26.3901 88.5515 26.6477 89.2986 26.8395C89.6299 26.9249 89.7624 27.1013 89.8287 27.3982C90.1416 28.8053 90.5265 30.1999 90.7577 31.621C90.9889 33.0422 91.0706 34.4872 91.2102 35.9223C91.2327 36.1505 91.213 36.383 91.213 36.7386L91.2116 36.7428Z" fill="#D8A663"/>
<path d="M22.8545 16.7782C21.6534 19.0171 20.63 21.3301 19.8814 23.758C19.0849 26.3455 18.5464 28.9792 18.3194 31.6815C18.0051 35.4213 18.1672 39.1345 18.9369 42.8057C19.9787 47.7763 21.9213 52.38 24.8464 56.5553C25.4625 57.4332 26.1067 58.2943 26.7834 59.126C27.46 59.9591 28.1931 60.7473 28.9121 61.5664C28.475 61.8801 27.9929 62.1629 27.5926 62.5312C27.2049 62.8882 26.899 63.3348 26.5324 63.7717C25.4709 62.5802 24.4968 61.3088 23.5988 59.9801C20.6116 55.5598 18.6098 50.7278 17.5582 45.5164C16.8956 42.2359 16.6489 38.9105 16.8237 35.5711C17.179 28.7818 19.0708 22.4433 22.6261 16.6144C22.6501 16.5752 22.6881 16.5458 22.7192 16.5122C22.7643 16.6004 22.8094 16.6886 22.8545 16.7768V16.7782Z" fill="#D8A663"/>
<path d="M35.0554 89.9727H37.7339C37.8382 89.6647 38.0102 89.3287 38.0623 88.9744C38.2653 87.5939 38.4415 86.2105 38.598 84.8244C38.6206 84.6171 38.4824 84.3931 38.4119 84.1523C38.5529 83.9339 38.7023 83.7014 38.9096 83.3794C39.2282 83.9437 39.5129 84.4477 39.8569 85.0596C39.5637 85.012 39.4171 84.9868 39.2592 84.9616C39.2366 85.0358 39.2098 85.0974 39.2 85.1618C39.0125 86.4513 38.863 87.7465 38.629 89.0276C38.4979 89.7417 38.1878 90.4054 37.4223 90.873C39.0872 91.7439 40.7366 92.472 42.4324 93.0671C42.3902 93.4106 42.2435 93.6985 41.9926 93.931C40.8803 93.791 39.8414 93.6117 38.7968 93.5445C37.9284 93.4899 37.8551 93.5851 37.5647 94.3692C37.4604 94.6507 37.3997 94.9503 37.349 95.2471C37.1671 96.2986 37.6211 97.0505 38.5007 97.5896C39.1732 98.0026 39.9076 98.2197 40.6999 98.2211C42.3789 98.2239 44.0029 97.9228 45.5663 97.311C45.8454 97.2017 46.1019 97.0365 46.3881 96.8881C46.3317 96.3546 46.2697 95.8506 46.2274 95.3437C46.1893 94.8803 46.1048 94.4056 46.1682 93.9534C46.219 93.5921 46.4642 93.2575 46.6221 92.9117C46.6757 92.9159 46.7293 92.9201 46.7842 92.9229C46.9548 93.3135 47.1268 93.7041 47.3157 94.134C47.179 94.2068 47.0718 94.2642 46.9379 94.3356C46.9661 94.6941 46.9985 95.0623 47.0239 95.4319C47.1127 96.7019 46.6334 97.647 45.4478 98.2113C43.6082 99.0878 41.6782 99.4686 39.6468 99.2502C39.1901 99.2012 38.7235 99.0639 38.3034 98.8735C37.3462 98.4409 36.8584 97.6722 36.8006 96.6179C36.7428 95.5846 37.0699 94.6521 37.5379 93.6635C37.1982 93.6817 36.9247 93.6958 36.6512 93.7098C35.7617 93.7574 34.8707 93.8582 33.9826 93.8386C33.1001 93.819 32.4502 93.2925 32.0005 92.577C31.7158 92.1234 31.8384 91.6333 32.1528 91.2091C32.3318 90.9682 32.532 90.7428 32.7773 90.4432C32.5715 90.411 32.4305 90.3704 32.2895 90.3676C31.5621 90.3592 30.8347 90.376 30.1101 90.3494C29.7492 90.3354 29.4757 90.4334 29.3559 90.6602C29.0754 90.6196 28.8413 90.5146 28.6581 90.5692C27.2709 90.9836 26.1953 91.8153 25.5384 93.1035C24.9491 94.26 25.1789 95.3689 26.0656 96.3126C26.8001 97.0939 27.6952 97.6498 28.6383 98.1146C29.7055 98.6411 30.8178 99.0738 31.9117 99.5442C32.1415 99.6436 32.3769 99.7304 32.673 99.8494C32.5461 99.9418 32.4897 100.016 32.4474 100.009C31.2943 99.8172 30.1256 99.6814 28.9936 99.4C27.7093 99.0807 26.5505 98.4479 25.5863 97.5322C24.2936 96.3056 24.0765 94.9251 24.8434 93.3541C25.5919 91.8195 26.8057 90.7694 28.3042 90.0049C28.4452 89.9321 28.5876 89.8621 28.7864 89.7627C28.6045 89.4253 28.4452 89.1228 28.2789 88.8232C28.1661 88.6202 28.0322 88.427 27.925 88.2211C27.6966 87.7801 27.6163 87.3474 27.9772 86.9204C28.3113 86.5255 28.7173 86.3435 29.222 86.4891C29.6674 86.618 30.1383 86.723 30.5358 86.947C31.9188 87.7269 33.2777 88.5516 34.6395 89.3707C34.7974 89.4659 35.0667 89.5373 34.9299 89.8341C34.8933 89.8901 34.8552 89.9475 34.8186 90.0035C34.7593 90.0525 34.7015 90.1001 34.6423 90.1491C34.5521 90.2346 34.4633 90.32 34.3731 90.4054C34.1405 90.4194 33.9079 90.446 33.6753 90.446C32.9112 90.4488 32.4671 91.1503 32.8294 91.8279C33.1734 92.472 33.7458 92.8095 34.4746 92.8235C35.2922 92.8403 36.1099 92.822 36.9275 92.794C37.3419 92.78 37.755 92.7128 38.168 92.6694C37.0346 92.052 35.9012 91.5213 34.7509 91.027C34.4661 90.9052 34.3533 90.803 34.5465 90.5286C34.6437 90.4082 34.741 90.2878 34.8383 90.1674C34.8763 90.1533 34.9074 90.1295 34.9313 90.0973C34.9722 90.0567 35.0131 90.0175 35.0526 89.9769L35.0554 89.9727ZM29.628 89.4701H32.6236C30.846 88.2365 29.1162 87.395 28.4692 87.4454C28.8625 88.1315 29.2459 88.805 29.628 89.4701Z" fill="#D8A663"/>
<path d="M56.1759 37.2399C56.166 37.1447 56.1561 37.0481 56.1463 36.9529C56.3986 36.6813 56.1505 36.7065 55.9842 36.684C55.3286 36.0764 54.5744 35.6269 53.7512 35.2769C53.1943 35.0403 52.6375 34.798 52.099 34.5222C51.294 34.1092 50.5821 33.5785 50.3199 32.6614C50.2339 32.3604 50.2001 32.0047 50.2762 31.7079C50.6879 30.0837 51.3603 28.5897 52.6572 27.45C52.8969 27.2386 53.1633 27.058 53.4438 26.8438C53.637 27.0986 53.8498 27.3072 53.9781 27.5578C54.3968 28.3825 55.1087 28.8292 55.9447 29.1246C56.603 29.357 57.2741 29.5559 57.9282 29.8023C58.8924 30.1663 59.5888 30.823 59.9314 31.8003C60.0174 32.0481 60.0526 32.352 59.9948 32.604C59.6988 33.8935 59.1659 35.0879 58.3877 36.166C58.2707 36.327 58.1002 36.4488 57.962 36.5944C57.6758 36.8983 57.3953 37.2077 57.1119 37.5143C56.7835 37.4779 56.3873 37.6684 56.1773 37.2385L56.1759 37.2399Z" fill="#D8A663"/>
<path d="M83.5864 61.0537C81.6551 64.001 79.2276 66.4835 76.466 68.644C71.8111 72.2844 66.5923 74.7234 60.6658 75.8366C60.9182 74.7094 60.6419 73.7195 60.1738 72.6988C64.6694 72.157 68.9014 70.9136 72.8965 68.8904C76.8945 66.8658 80.4146 64.2083 83.5864 61.0551V61.0537Z" fill="#D8A663"/>
<path d="M15.1181 85.5018C14.3343 85.3772 13.6675 85.2596 12.9964 85.1671C11.8757 85.0145 11.2822 84.3032 10.9467 83.3049C10.903 83.1733 10.8579 83.0431 10.81 82.9129C10.8029 82.8947 10.7775 82.8821 10.7226 82.8317C10.5365 82.9087 10.3321 83.0039 10.1192 83.0767C9.69205 83.2223 9.52571 83.1999 9.3791 82.8177C9.17328 82.28 8.99001 81.7186 8.92235 81.1515C8.8434 80.4906 8.98296 80.3996 9.65258 80.359C9.72166 80.3548 9.79214 80.3464 9.98105 80.331C9.79919 80.1938 9.6991 80.093 9.57927 80.0342C8.63194 79.5637 7.61836 79.6127 6.61323 79.7163C5.35576 79.8466 4.10534 80.0524 2.84646 80.1798C2.34178 80.2302 1.82159 80.1798 1.31127 80.1336C0.433018 80.0566 -0.287349 78.9687 0.115831 77.9157C0.612052 76.6192 1.66793 75.8603 2.97615 75.4375C3.01703 75.4235 3.07201 75.4333 3.1143 75.4473C3.15237 75.4599 3.18197 75.4935 3.26937 75.5551C2.94655 75.7343 2.65614 75.9177 2.34601 76.0633C1.66229 76.3868 1.18299 76.9258 0.784038 77.5363C0.406233 78.1146 0.52042 78.557 1.16043 78.8342C1.53542 78.9981 1.9682 79.1199 2.37138 79.1115C3.35396 79.0891 4.33512 78.9953 5.31347 78.8986C6.19877 78.8118 7.07843 78.6368 7.96515 78.5836C8.88146 78.529 9.79496 78.648 10.6168 79.1045C10.896 79.2599 11.1539 79.4741 11.3767 79.7023C11.708 80.0412 11.7517 80.436 11.6586 80.9233C11.3273 82.6651 12.5326 84.7681 14.822 84.5105C14.6796 83.8664 14.3921 83.3511 13.6111 83.1943C14.1017 82.7015 14.5344 82.5152 15.1702 82.7113C16.3868 83.0851 17.368 83.739 18.0714 84.7947C18.149 84.9109 18.218 85.0341 18.2772 85.1587C18.3054 85.2176 18.3026 85.2904 18.3097 85.3408C17.7416 86.0702 17.0014 85.765 16.2331 85.6236C16.5066 86.4889 16.9324 87.0588 17.7359 87.3164C18.2801 87.49 18.6297 87.413 18.9102 86.8879C19.5784 85.6362 20.21 84.3663 20.8528 83.1019C21.4844 81.8586 22.1103 80.611 22.739 79.3663C22.7813 79.2837 22.8574 79.2025 22.8616 79.1185C22.8884 78.5164 23.3522 78.2644 23.8499 77.8681C23.7681 78.8132 23.7357 79.6505 23.3621 80.5242C23.2465 80.345 23.1718 80.2274 23.0928 80.1056C23.0675 80.1168 23.0111 80.121 22.997 80.1476C21.9665 82.2058 20.9599 84.2766 19.8956 86.3181C19.6221 86.8431 19.2147 87.322 18.7847 87.7378C18.2406 88.2657 17.5442 88.3357 16.8125 88.1299C16.501 88.0431 16.2557 87.8989 16.1105 87.6076C15.8412 87.0658 15.5664 86.5267 15.3027 85.9834C15.2224 85.8196 15.1688 85.6418 15.1167 85.5032L15.1181 85.5018Z" fill="#D8A663"/>
<path d="M89.4508 87.5211C89.0646 87.7438 88.7854 87.6318 88.5444 87.3559C88.0622 86.8029 87.886 86.1308 87.731 85.4517C87.7732 85.4307 87.8141 85.4111 87.8564 85.3901C87.9227 85.5077 87.9918 85.6225 88.0552 85.7415C88.1849 85.9852 88.2779 86.2568 88.4471 86.4696C88.66 86.7357 88.777 86.702 89.1266 86.3366C89.3662 86.7469 89.6129 87.1333 89.823 87.5393C90.1599 88.1876 90.549 88.7869 91.1552 89.2209C91.2679 89.3021 91.3835 89.3833 91.5048 89.4506C91.7642 89.5962 92.0461 89.669 92.2956 89.4646C92.5395 89.2643 92.6622 88.9927 92.6114 88.6581C92.5141 88.0154 92.3774 87.3713 92.3548 86.7245C92.3379 86.198 92.4394 85.6631 92.5409 85.1423C92.5832 84.9281 92.7425 84.725 92.8835 84.5444C93.0752 84.2994 93.3219 84.2154 93.6278 84.375C93.9379 84.536 94.2594 84.676 94.578 84.8202C95.6367 85.3019 96.4543 85.0541 97.1592 84.1244C97.2593 83.9927 97.2748 83.7813 97.2874 83.6049C97.3086 83.3305 97.2931 83.0518 97.2931 82.6766C97.4411 82.79 97.5215 82.8404 97.5891 82.9048C97.9077 83.2087 98.4956 83.3305 98.879 83.0994C99.2808 82.8586 99.6544 82.5562 99.629 82.0087C99.6149 81.6993 99.5909 81.3899 99.5726 81.1098C99.9603 81.261 100.272 81.4487 100.606 81.4991C100.989 81.5565 101.335 81.3899 101.567 81.0398C101.799 80.6912 102.051 80.3551 102.289 80.0205C101.181 78.8878 100.836 77.6136 101.385 76.0553C100.049 74.8637 98.6605 73.654 97.31 72.4009C97.0111 72.1236 96.8504 71.6994 96.6813 71.2905C97.5778 71.5202 98.4166 71.8058 99.1948 72.4821C98.9157 72.5171 98.762 72.5381 98.5886 72.5591C98.6253 72.6277 98.6422 72.6977 98.6873 72.7383C99.7714 73.7016 100.855 74.6621 101.945 75.6198C102.343 75.9699 102.785 76.1085 103.304 75.8788C103.473 75.8046 103.662 75.778 103.84 75.7206C104.7 75.4462 105.35 75.7836 105.636 76.6419C105.784 77.0844 105.764 77.5156 105.584 77.9371C105.223 78.7786 104.683 79.4814 103.824 79.8511C103.462 80.0065 103.272 80.2361 103.118 80.5638C102.97 80.8788 102.787 81.1784 102.601 81.4739C101.942 82.5198 101.343 82.7242 100.149 82.2916C100.273 82.9594 100.208 83.5895 99.6219 83.9871C99.0736 84.3582 98.466 84.2616 97.9571 84.0417C97.802 84.4842 97.7357 84.9953 97.4721 85.3677C96.8617 86.2302 95.6465 86.4094 94.6231 85.8788C94.437 85.7821 94.2622 85.6617 94.0775 85.5623C93.6433 85.3285 93.4319 85.3747 93.25 85.8214C93.0385 86.338 92.8736 86.8701 92.9779 87.4539C93.0851 88.049 93.1823 88.6511 93.2162 89.2531C93.2669 90.1562 92.7369 90.5203 91.8671 90.2248C90.7844 89.8566 90.2008 88.9927 89.6905 88.056C89.6129 87.9146 89.5579 87.7606 89.4536 87.5239L89.4508 87.5211ZM105.195 76.7875C104.665 76.5761 104.157 76.6839 103.273 77.1516C103.431 77.601 103.587 78.0491 103.759 78.5391C104.516 78.1835 104.825 77.4862 105.196 76.7875H105.195ZM102.74 79.0138C102.839 78.7632 102.962 78.5377 103.015 78.2983C103.101 77.9189 103.035 77.5478 102.708 77.3C102.537 77.1712 102.267 77.0158 102.109 77.0704C101.959 77.1208 101.872 77.4204 101.806 77.6262C101.758 77.7732 101.786 77.9455 101.784 78.1079C101.777 78.8892 101.801 78.9144 102.74 79.0152V79.0138Z" fill="#D8A663"/>
<path d="M44.7332 101.923C46.5461 101.404 48.2419 101.014 49.8688 100.433C53.3085 99.2027 54.1698 98.756 54.5772 98.2254C54.1839 98.1022 53.8244 97.9705 53.4565 97.8781C52.9391 97.7479 52.4274 97.5911 52.3019 97.0016C52.1793 96.422 52.4937 95.9725 52.8884 95.5833C53.0209 95.4531 53.1661 95.327 53.3254 95.2346C53.7497 94.9896 54.0937 95.0162 54.377 95.4139C54.7097 95.8801 54.9593 96.4052 55.3131 97.024C56.1547 97.0772 56.8751 96.3954 57.7519 96.0509C57.7519 96.3478 57.6941 96.6068 57.7646 96.8252C57.8816 97.1795 58.3426 97.3937 58.7528 97.3377C59.2434 97.2705 59.6254 97.0198 59.9046 96.6138C60.0991 96.331 60.2908 96.0481 60.608 95.7975C60.608 95.8913 60.6348 95.9935 60.6038 96.0761C60.4698 96.4304 60.7123 96.5788 60.9421 96.7482C61.1874 96.9288 61.4426 96.9274 61.6484 96.73C61.8429 96.5438 61.998 96.3086 62.1404 96.0775C62.2799 95.8507 62.3828 95.6015 62.6309 95.3901C62.6535 95.5147 62.6606 95.6435 62.6986 95.7611C62.8889 96.3394 63.2949 96.548 63.8941 96.3856C64.8935 96.1139 65.0754 95.8143 64.8245 94.7516C64.403 92.9608 63.9589 91.1756 63.5346 89.3862C63.3527 88.6161 63.1991 87.839 63.0285 87.0661C62.9989 86.9317 62.9608 86.7973 62.9073 86.6713C62.6789 86.1294 62.6817 85.925 62.9453 85.2949C63.6361 86.0328 64.1267 86.9555 64.1083 87.4904C64.004 87.4456 63.9011 87.4022 63.7813 87.3518C63.7658 87.419 63.7263 87.4876 63.7404 87.5436C64.2437 89.6676 64.7596 91.7874 65.253 93.9129C65.4222 94.6396 65.5744 95.3858 65.2981 96.1167C65.1699 96.457 64.9979 96.8112 64.754 97.0744C63.9815 97.9075 63.0158 97.8193 62.3053 96.863C62.1827 97.066 62.0755 97.2621 61.9501 97.4469C61.4144 98.231 60.7095 98.2352 60.1527 97.4273C60.0455 97.5533 59.9609 97.6863 59.8453 97.7843C59.5803 98.0083 59.3308 98.2842 59.0221 98.4172C58.3327 98.7154 57.6152 98.5544 57.3459 97.6947C57.305 97.5645 57.2501 97.4385 57.1951 97.2943C56.4944 97.6639 55.8615 98.1806 54.9875 98.1806C54.862 99.1943 54.1543 99.6969 53.3451 100.121C51.9763 100.841 50.5976 101.534 49.0554 101.818C48.9172 101.843 48.779 101.887 48.6409 101.891C47.4694 101.932 46.2965 101.968 45.1251 102C45.0447 102.003 44.9615 101.969 44.7346 101.925L44.7332 101.923Z" fill="#D8A663"/>
<path d="M83.8133 81.971C84.9031 83.8724 85.9956 85.7738 87.0839 87.6766C87.4335 88.2885 87.6943 88.927 87.7338 89.6467C87.7944 90.7556 87.1262 91.8421 85.6502 91.6083C85.1653 91.5313 84.6705 91.4851 84.2038 91.3451C83.8683 91.2456 83.6978 91.338 83.4835 91.5705C82.9619 92.1333 82.4318 92.692 81.8609 93.2031C81.2336 93.7659 80.4667 93.7001 79.6829 93.1303C79.1091 92.713 78.7623 92.1403 78.5043 91.5075C78.0391 90.3649 77.5923 89.2154 77.1383 88.0687C76.5914 86.6825 76.0599 85.2866 75.1929 84.0572C74.8532 83.5742 74.8518 83.0813 74.966 82.3925C75.2056 82.6655 75.3832 82.8335 75.5214 83.0309C76.3869 84.2631 76.9762 85.6338 77.5161 87.0256C77.9715 88.1975 78.393 89.382 78.8286 90.5624C79.0584 91.1868 79.4066 91.7273 79.9437 92.1375C80.3877 92.4764 80.8332 92.5772 81.3647 92.2888C81.8454 92.0283 82.2993 91.7553 82.6151 91.3016C82.6757 91.2148 82.7011 91.1042 82.742 91.0034C81.9173 90.6744 81.8369 90.6828 81.0404 91.1644C80.8332 90.3257 80.9051 90.1647 81.5338 89.6481C82.6574 88.724 83.9177 88.2899 85.3725 88.4803C85.7531 89.3288 85.1568 89.8119 84.6535 90.3159C85.4388 90.799 86.6145 90.5932 87.074 89.9253C87.2954 89.6019 87.2813 89.2784 87.0881 88.941C86.6004 88.0911 86.1281 87.2328 85.6432 86.3801C84.7438 84.8007 83.8415 83.2241 82.9393 81.6476C82.8815 81.5482 82.8308 81.4361 82.749 81.3591C82.3571 80.9825 82.3134 80.5232 82.3952 79.8848C83.007 80.4616 83.5525 80.9615 84.0798 81.4809C84.2405 81.6392 84.2701 81.817 83.9557 81.8492C83.9064 81.8184 83.857 81.7862 83.8063 81.7554C83.8091 81.8268 83.8119 81.8982 83.8148 81.9696L83.8133 81.971Z" fill="#D8A663"/>
<path d="M53.5932 74.886C53.4677 73.5741 54.7647 72.0675 56.3943 72.0941C58.1268 72.1221 59.2307 73.5587 59.2574 74.9294C59.287 76.45 57.8477 77.7269 56.3929 77.7521C55.0551 77.7745 53.3944 76.3772 53.5932 74.8874V74.886Z" fill="#D8A663"/>
<path d="M38.6714 70.2124C38.8011 71.6056 37.538 73.0127 35.9111 73.0253C34.2124 73.0393 33.0071 71.7512 33.0269 70.1802C33.0466 68.6372 34.2406 67.3827 35.8026 67.3659C37.4195 67.3491 38.7447 68.6134 38.6714 70.2124Z" fill="#D8A663"/>
<path d="M33.3174 65.7834C33.4823 67.0771 32.0585 68.5459 30.5487 68.4941C28.9303 68.4395 27.6602 67.2578 27.6757 65.6742C27.6898 64.1438 28.9289 62.8067 30.6065 62.8543C32.1755 62.8991 33.3272 64.106 33.3188 65.782L33.3174 65.7834Z" fill="#D8A663"/>
<path d="M52.175 75.0947C52.2201 76.5397 50.9923 77.9468 49.3246 77.9216C47.5117 77.8936 46.4896 76.4248 46.5136 75.1395C46.546 73.4705 47.7119 72.3042 49.3161 72.2678C50.8231 72.2328 52.2328 73.5349 52.175 75.0947Z" fill="#D8A663"/>
<path d="M42.307 76.188C40.9029 76.3225 39.4763 74.9405 39.5031 73.4157C39.527 72.0646 40.5547 70.5734 42.4381 70.586C43.8337 70.5958 45.2138 71.849 45.1786 73.4395C45.1476 74.8691 43.9874 76.3197 42.3056 76.188H42.307Z" fill="#D8A663"/>
<path d="M35.4615 12.8788C35.4784 13.2036 35.4939 13.5284 35.5108 13.8533C35.453 13.8785 35.3416 13.9191 35.3431 13.9289C35.4967 14.489 35.8646 14.895 36.3933 15.084C36.5878 15.1526 37.0178 15.3374 37.101 14.8376C37.4365 14.8502 37.3801 14.6136 37.3773 14.4119C37.459 13.4822 37.0573 12.6884 36.616 11.9239C36.4497 11.6354 36.3736 11.417 36.5047 11.0922C36.7514 10.4803 36.9417 9.84743 37.2123 9.06055C37.3674 9.38678 37.4703 9.5352 37.5126 9.69902C37.7931 10.7953 38.1724 11.8833 38.3035 12.9978C38.4444 14.1907 38.3077 15.4103 37.8298 16.5458C37.4745 17.3901 36.8952 17.5819 35.969 17.2179C35.9408 16.7978 35.5912 16.6186 35.3078 16.417C35.2218 16.3554 35.0033 16.4772 34.8454 16.5136C34.8412 16.5598 34.837 16.6074 34.8313 16.6536C34.7439 16.7082 34.5987 16.7474 34.5776 16.8216C34.4169 17.3845 33.9939 17.7667 33.6302 18.1798C33.3398 18.5088 32.439 18.401 32.3107 18.0216C32.1543 17.5581 31.8286 17.1437 31.878 16.6116C31.9047 16.3288 31.8441 16.0599 31.5185 15.9507C31.5284 15.4747 31.5368 14.9972 31.5467 14.5212C31.6256 14.2999 31.706 14.0731 31.3733 13.9919C31.0998 13.9247 31.1632 13.7119 31.1985 13.5522C31.252 13.3128 31.3592 13.0846 31.4438 12.8522H31.4367C31.5692 12.8718 31.7032 12.8914 31.8751 12.9166V15.2814C32.291 15.8275 32.6124 16.2504 32.9226 16.6578C33.2242 16.5444 33.478 16.4842 33.6909 16.3568C33.8248 16.277 33.8981 16.0949 33.9982 15.9591C34.1081 15.7715 34.2181 15.5839 34.3266 15.3949C34.6678 15.3024 34.6847 15.0266 34.703 14.7466C34.7453 14.1011 34.6311 13.4766 34.4845 12.8508C34.3647 12.3411 34.2688 11.8189 34.8257 11.5192C35.0202 11.662 35.1795 11.7783 35.3388 11.8959L35.4079 12.5903C35.1894 12.7276 35.25 12.8158 35.4601 12.8746L35.4615 12.8788Z" fill="#D8A663"/>
<path d="M66.6121 92.8852C66.6417 93.2968 66.6784 93.7085 66.701 94.1201C66.7362 94.7866 66.9434 95.3971 67.3128 95.9487C67.4848 96.2064 67.7131 96.4318 68.0642 96.3632C68.3884 96.3002 68.5942 96.0733 68.6915 95.7667C68.8762 95.1912 69.0326 94.606 69.2258 94.0319C69.4372 93.4074 69.746 92.8362 70.2647 92.4007C70.8286 91.9289 71.1627 91.9457 71.6336 92.4875C71.8478 92.734 72.0311 93.0084 72.2553 93.245C73.1349 94.1719 74.5404 93.9941 75.1593 92.8782C75.4497 92.3545 75.7203 91.8197 75.9938 91.2862C76.1715 90.9404 76.3829 90.6477 76.8227 90.6253C77.2654 90.6029 77.5008 90.8704 77.7066 91.2022C78.0097 91.6909 78.1789 92.2117 78.1324 92.7914C78.0802 93.4424 77.9407 93.6077 77.3063 93.5153C76.7607 93.4355 76.2335 93.2366 75.664 93.0798C75.5935 93.2534 75.5117 93.4635 75.4243 93.6707C74.7829 95.1786 72.9869 95.4783 71.8662 94.2573C71.6773 94.0515 71.5363 93.8051 71.3643 93.5839C71.0739 93.2114 70.8399 93.1736 70.4818 93.4817C70.0335 93.8681 69.6783 94.3231 69.5218 94.9098C69.3837 95.4279 69.2554 95.9487 69.0834 96.4556C68.7648 97.3937 68.0021 97.5631 67.3226 96.8364C67.0731 96.569 66.8532 96.2456 66.7193 95.9081C66.326 94.928 66.1455 93.9143 66.4148 92.874C66.4796 92.8768 66.5459 92.881 66.6107 92.8838L66.6121 92.8852Z" fill="#D8A663"/>
<path d="M29.1023 11.0975C29.0206 11.2081 28.9571 11.3383 28.8556 11.4265C27.9083 12.2526 27.0653 13.1725 26.2378 14.1792C26.2928 13.8642 26.3618 13.5506 26.3999 13.2341C26.5141 12.2876 26.8778 11.4685 27.5742 10.7937C28.6639 9.73934 29.6761 8.59822 30.8292 7.62091C32.4462 6.25015 34.221 5.07402 36.096 4.07291C37.5381 3.30282 38.9972 2.55234 40.4957 1.90267C42.4637 1.04997 44.5247 0.446503 46.6322 0.0236562C46.8958 -0.0295498 47.1806 0.0166554 47.5556 0.0166554C47.4301 0.529113 47.3385 0.996765 47.1904 1.44762C47.1538 1.55823 46.9409 1.62964 46.7957 1.68144C45.1083 2.29191 43.4082 2.86597 41.7334 3.51005C40.7974 3.87129 39.9078 4.35154 38.9929 4.76599C38.718 4.8906 38.4262 4.97601 38.1429 5.07962C38.1231 5.06422 38.1034 5.04742 38.0837 5.03062C38.195 4.8458 38.2613 4.59097 38.4248 4.49016C38.7928 4.26193 39.1931 4.06311 39.6062 3.93569C40.6155 3.62346 41.4501 2.88838 42.5285 2.75396C43.2024 2.1925 44.0468 2.12389 44.8545 1.92927C45.4748 1.78085 46.0937 1.58483 46.6703 1.3202C47.1594 1.09478 47.1327 1.03737 47.0072 0.403099C46.7661 0.426901 46.5166 0.449304 46.2685 0.477307C45.6017 0.554316 45.0716 1.03037 44.3809 1.07517C43.4646 1.13538 42.6751 1.74865 41.7151 1.71084C41.4783 1.70104 41.2259 1.93627 40.9919 2.07489C40.679 2.26111 40.4069 2.48793 40.0108 2.55374C39.6865 2.60835 39.344 2.79037 39.0973 3.01159C38.8365 3.24542 38.5601 3.35603 38.2387 3.41204C37.7425 3.49744 37.3351 3.73687 36.9813 4.08691C36.8685 4.19892 36.7303 4.32354 36.5837 4.35714C35.5448 4.59097 34.9287 5.60188 33.8742 5.7993C33.8362 5.8063 33.8122 5.86791 33.7742 5.89451C33.4852 6.09053 33.1877 6.27396 32.9072 6.48118C32.4377 6.82982 31.9641 7.17706 31.5186 7.5565C30.9632 8.03115 30.4782 8.59542 29.8847 9.01266C29.428 9.3347 29.0756 9.71274 28.7161 10.1244C28.2706 10.634 28.0775 11.3173 27.5136 11.7374C27.3825 11.8354 27.319 12.023 27.2232 12.1686C27.0042 12.303 26.9878 12.4977 27.1738 12.7525C27.195 12.5187 27.2105 12.345 27.2246 12.17C27.7561 12.1098 28.0873 11.701 28.3665 11.3509C28.5864 11.0751 28.7837 11.0583 29.053 11.0443L29.0939 11.0905L29.1023 11.0975Z" fill="#D8A663"/>
<path d="M51.0233 97.4411C50.7117 97.3025 50.5764 97.2255 50.4298 97.1793C50.1197 97.0813 49.8011 97.0085 49.4923 96.9076C48.6098 96.6164 48.3448 96.0395 48.8016 95.2513C49.0032 94.9026 49.3246 94.5974 49.6544 94.3552C50.0153 94.0905 50.3649 94.1521 50.6582 94.4868C51.2531 95.1631 51.5914 95.9457 51.418 96.8614C51.2164 97.92 50.6962 98.7503 49.677 99.2459C48.3744 99.8788 47.1014 100.575 45.6635 100.877C45.5719 100.897 45.4817 100.936 45.39 100.939C43.9902 100.986 42.5903 101.03 41.1609 100.989C41.2892 100.933 41.4132 100.848 41.5486 100.825C44.5499 100.323 47.3369 99.1871 50.0999 97.9788C50.3706 97.8612 50.6145 97.6819 51.0261 97.4397L51.0233 97.4411Z" fill="#D8A663"/>
<path d="M14.3354 90.3773C14.5511 90.3997 14.7682 90.4151 14.9825 90.4473C16.4161 90.6643 17.8428 90.9752 19.2849 91.0816C20.868 91.1992 22.4667 91.139 24.0582 91.1306C24.25 91.1306 24.4417 90.9724 24.7462 90.838C24.3994 90.5635 24.1626 90.3815 23.9342 90.1925C23.7199 90.0147 23.5042 89.8368 23.3054 89.6436C23.07 89.4154 23.0122 89.1242 23.0573 88.8063C23.1617 88.0811 24.5009 87.3138 25.162 87.633C25.3439 87.7212 25.5046 87.9494 25.5793 88.1483C26.2052 89.8158 25.0154 91.7985 23.2293 92.0197C21.525 92.2311 19.8136 92.2059 18.1106 91.9623C17.8611 91.9273 17.6215 91.8111 17.3818 91.7215C16.5078 91.3938 15.6338 91.0634 14.7611 90.7316C14.6047 90.6727 14.4552 90.5971 14.303 90.5299C14.3143 90.4795 14.3269 90.4291 14.3382 90.3787L14.3354 90.3773Z" fill="#D8A663"/>
<path d="M85.4643 78.3162C86.1099 78.8609 86.7556 79.4069 87.4985 80.0328C87.1884 80.0692 87.0347 80.0888 86.8275 80.1126C87.2715 80.8085 87.6916 81.4651 88.1343 82.1568C88.7066 81.2649 89.162 79.4097 89.0619 78.4534C88.942 78.4338 88.8109 78.4002 88.6784 78.3918C88.0483 78.347 87.5027 77.7043 87.5605 77.0715C87.5845 76.804 87.7522 76.6752 87.9933 76.8096C88.2964 76.9776 88.5572 77.2185 88.8391 77.4243C88.9646 77.5153 89.0943 77.6623 89.231 77.6707C90.0036 77.7239 90.2193 78.2518 90.3828 78.9127C90.0769 78.6914 89.8161 78.5024 89.4651 78.249C89.4383 78.487 89.4002 78.5948 89.4199 78.6914C89.6652 79.925 89.3932 81.0591 88.6996 82.0826C88.4416 82.4621 88.4825 82.7183 88.7207 83.0711C89.372 84.0386 89.9965 85.0243 90.6069 86.0171C91.0721 86.7731 91.4894 87.5558 91.6121 88.4533C91.6304 88.5849 91.6149 88.7222 91.6149 88.8874C91.5218 88.858 91.4232 88.8552 91.4105 88.8188C90.8339 87.301 89.7992 86.0479 88.9745 84.6729C88.0765 83.1761 87.1291 81.7088 86.1973 80.233C86.062 80.0174 85.9252 79.7878 85.7363 79.6253C85.3247 79.2697 85.4149 78.8147 85.3247 78.3946C85.3712 78.368 85.4177 78.3414 85.4643 78.3148V78.3162Z" fill="#D8A663"/>
<path d="M27.388 35.7094C27.1075 36.2989 26.6451 36.7217 26.0756 37.006C24.9718 37.5562 23.8426 38.0631 22.6232 38.2997C22.1932 38.3837 21.7365 38.3487 21.2938 38.3347C21.1585 38.3305 21.0274 38.2129 20.7905 38.0981C22.423 37.4078 24.0752 37.0214 25.475 35.8789C24.3317 35.3118 23.2322 35.2782 22.1058 35.5456C21.7097 33.8486 22.7853 32.3309 24.7251 32.5269C26.0206 32.6571 27.2879 33.0099 28.4679 33.5994C28.5694 33.6498 28.661 33.717 28.8273 33.8178C28.4791 34.5725 28.0097 35.1956 27.3852 35.7122C27.4106 35.2698 27.4796 34.8861 27.9364 34.6159C28.3903 34.3471 28.2846 33.9088 27.7658 33.7226C27.5952 33.661 27.4092 33.64 27.2329 33.5938C27.147 33.5714 26.9961 33.5392 26.9933 33.5014C26.9595 33.1093 26.6606 33.2088 26.4238 33.164C25.8162 33.0477 25.2142 32.9063 24.608 32.7817C24.5221 32.7635 24.4234 32.7775 24.336 32.7957C23.3041 33.0099 22.6316 33.6162 22.3497 34.6285C22.3102 34.7699 22.344 34.9309 22.344 35.1396C22.9798 35.1396 23.5987 35.0598 24.1837 35.1634C24.7349 35.2614 25.3538 35.3104 25.7386 35.687C25.7457 36.2051 25.5018 36.4403 25.1282 36.5201C24.811 36.5887 24.7645 36.7876 24.7152 37.0522C25.0169 37.0172 25.265 36.999 25.5074 36.9556C25.6386 36.9332 25.7852 36.8968 25.8853 36.817C26.2715 36.5047 26.6338 36.1659 27.0201 35.8537C27.1173 35.7752 27.2654 35.757 27.3908 35.7122L27.388 35.7094Z" fill="#D8A663"/>
<path d="M6.81309 71.894C6.96393 72.4261 7.09786 72.9008 7.24729 73.4286C7.0612 73.4034 6.95688 73.3908 6.81591 73.3712V74.4157C7.70544 74.2533 8.55269 74.0993 9.39993 73.9453C8.82053 74.8456 7.81117 74.665 6.95547 74.9926C6.93292 75.12 6.89768 75.2726 6.87794 75.428C6.69327 76.9136 5.23421 77.6347 3.73709 76.9738C3.36351 76.8086 3.27047 76.4544 3.4932 76.0959C3.62431 75.8845 3.80475 75.6717 4.0148 75.5443C4.62803 75.1732 5.26663 74.847 5.9151 74.4913C5.95598 74.0433 6.04339 73.5364 6.03775 73.0324C6.03211 72.4807 6.37185 72.2161 6.81027 71.894H6.81309ZM6.02224 76.432V75.0528C5.33571 75.267 4.69428 75.351 4.19242 75.9335C4.74222 76.3886 5.33712 76.4656 6.02224 76.432Z" fill="#D8A663"/>
<path d="M107.944 77.4135C105.857 75.2992 103.397 73.703 101.178 71.8184C100.561 71.2948 99.9971 70.7039 99.2372 70.3427C98.9257 70.1942 98.7791 69.805 98.686 69.2939C99.5572 69.63 100.321 69.924 101.208 70.2657C100.967 70.4141 100.846 70.4883 100.726 70.5625C100.739 70.6031 100.737 70.6577 100.764 70.6787C102.591 72.1321 104.425 73.5756 106.246 75.036C106.923 75.5778 107.543 76.1799 107.906 76.9906C107.942 77.0732 107.979 77.16 107.997 77.2482C108.006 77.286 107.972 77.3336 107.944 77.4149V77.4135Z" fill="#D8A663"/>
<path d="M26.1419 78.7282C26.0672 79.5459 25.9925 80.3636 25.9022 81.3493C25.6837 81.0721 25.578 80.9405 25.4554 80.7864C24.6236 82.8069 23.8173 84.8091 22.9728 86.7945C22.6824 87.4778 22.3089 88.1261 21.948 88.7771C21.721 89.1874 21.3742 89.4912 20.8484 89.823C20.9259 89.5682 20.9443 89.4436 20.9992 89.3386C21.2967 88.7645 21.6421 88.2129 21.9 87.622C22.9672 85.1717 24.009 82.7117 25.0592 80.2544C25.1227 80.106 25.227 79.9505 25.2213 79.8021C25.2016 79.2225 25.6217 78.9746 25.9558 78.6582C26.0178 78.682 26.0799 78.7044 26.1405 78.7282H26.1419Z" fill="#D8A663"/>
<path d="M44.5766 87.598C44.4075 87.4943 44.2989 87.4271 44.1156 87.3137C44.0311 88.3428 43.9634 89.3103 43.8689 90.2765C43.6941 92.0589 43.532 93.8427 43.3022 95.6167C43.2416 96.0801 42.9569 96.5155 42.7609 96.958C42.7228 97.0448 42.6171 97.1022 42.4155 97.2926C42.5495 96.7074 42.6876 96.2915 42.7341 95.8659C42.8779 94.5497 42.9851 93.2294 43.1091 91.9118C43.2557 90.3353 43.4066 88.7601 43.5518 87.1835C43.5729 86.9525 43.6378 86.7019 43.5785 86.489C43.4221 85.929 43.7054 85.5173 43.9521 85.0679C44.2566 85.4627 44.5907 86.7803 44.5794 87.5966L44.5766 87.598Z" fill="#D8A663"/>
<path d="M53.5636 89.9543C53.3944 89.6295 53.2549 89.3606 53.0476 88.9616C52.3061 90.8364 50.9683 91.7605 49.1089 92.2351C49.2682 91.9201 49.4952 91.8641 49.67 91.7605C50.6004 91.2046 51.4363 90.534 52.1652 89.7359C52.378 89.5034 52.5359 89.222 52.715 88.97C51.7775 88.1789 51.7098 87.6496 52.4034 86.8403C52.8517 86.8949 52.9109 87.2828 52.9898 87.5978C53.0857 87.9857 53.1999 88.3245 53.4917 88.6325C53.847 89.0064 53.8047 89.474 53.5636 89.9529V89.9543Z" fill="#D8A663"/>
<path d="M59.3562 88.0729C59.2562 87.9846 59.2237 87.951 59.1871 87.923C58.5428 87.4526 58.4117 86.8519 58.8149 86.1994C58.9855 85.9236 59.2463 85.9124 59.4225 86.184C59.4831 86.2779 59.5113 86.3969 59.5437 86.5075C59.6889 86.9905 59.8285 87.4498 60.1922 87.8572C60.4798 88.1779 60.4784 88.6581 60.1541 89.1118C60.0273 88.7757 60.078 88.3851 59.6142 88.2913C58.9263 89.9799 57.6068 90.9068 55.8235 91.2442C56.4339 90.8116 57.0598 90.3985 57.6477 89.9379C58.0678 89.6088 58.454 89.2322 58.822 88.8443C59.0376 88.6175 59.1843 88.3263 59.3548 88.0729H59.3562Z" fill="#D8A663"/>
<path d="M38.1456 5.08271C37.593 5.41735 37.053 5.77579 36.4863 6.08382C34.7425 7.03033 33.0607 8.07345 31.4804 9.27058C30.6839 9.87405 29.8959 10.4887 29.1036 11.0978L29.0627 11.0516C29.0698 10.6861 29.1826 10.3921 29.5265 10.1863C29.8324 10.0029 30.1327 9.78584 30.3766 9.52821C30.6952 9.19357 31.0138 8.90234 31.4889 8.81693C31.6129 8.79453 31.737 8.70912 31.8385 8.62511C32.5546 8.02584 33.2637 7.41817 33.9813 6.81891C34.0475 6.7643 34.1561 6.70829 34.2308 6.72369C34.5804 6.7979 34.7961 6.54868 35.047 6.40446C35.3853 6.20984 35.6786 5.92841 36.0296 5.76459C36.6907 5.45655 37.2574 4.86989 38.0892 5.03371C38.1075 5.05051 38.1272 5.06731 38.1484 5.08271H38.1456Z" fill="#D8A663"/>
<path d="M17.8457 82.1471C17.9725 81.9105 18.1037 81.6641 18.3193 81.258C16.3584 81.8279 14.7852 81.3477 13.3684 80.2037C14.8796 80.6826 16.3923 81.1502 18.0247 81.027C18.0571 80.8828 18.0938 80.7974 18.0924 80.712C18.0755 79.9573 18.4533 79.5121 19.2061 79.407C19.5768 79.3552 19.753 79.5555 19.6149 79.8957C19.5458 80.0651 19.4471 80.2317 19.3259 80.3675C19.0439 80.684 18.824 81.0018 18.7747 81.4527C18.7239 81.9063 18.3659 82.1247 17.8471 82.1457L17.8457 82.1471Z" fill="#D8A663"/>
<path d="M65.1135 90.4951C66.106 89.4758 67.0181 88.4116 67.5777 87.0759C67.3042 86.7511 66.6797 86.8281 66.6952 86.2722C66.7051 85.9026 66.519 85.4755 66.9419 85.1885C67.3465 85.2543 67.4114 85.6155 67.5904 85.8718C67.7201 86.0566 67.8174 86.289 67.9922 86.4122C68.4517 86.7328 68.6167 87.1417 68.5081 87.7228C68.3094 87.4931 68.1289 87.2845 67.8738 86.9905C67.5763 88.7435 66.5853 89.816 65.1135 90.4951Z" fill="#D8A663"/>
<path d="M72.9078 88.9437C72.7555 89.0109 72.6724 89.0487 72.4849 89.1313C72.5765 88.616 72.8345 88.2856 73.1883 87.867C73.1883 88.2968 73.1855 88.6146 73.1883 88.9325C73.1911 89.1551 73.2405 89.3875 73.5097 89.3791C73.7748 89.3707 73.8142 89.1243 73.8185 88.9143C73.8227 88.7309 73.81 88.5376 73.7578 88.364C73.6676 88.063 73.7381 87.8264 73.9693 87.6079C74.419 87.9538 73.9115 88.7827 74.6586 88.9647C74.8941 88.7323 74.763 88.518 74.677 88.308C74.5369 87.9645 74.5722 87.5692 74.7827 87.1221C75.0844 87.7759 75.2225 88.4116 75.1196 89.0879C75.0083 89.8202 74.8053 89.9406 74.0666 89.7012C74.013 89.7922 73.9665 89.8958 73.8988 89.9826C73.724 90.208 73.4688 90.3242 73.225 90.1898C73.0741 90.1072 72.9628 89.879 72.9205 89.6956C72.8683 89.4757 72.9078 89.2349 72.9078 88.9451V88.9437Z" fill="#D8A663"/>
<path d="M33.7106 84.4364C33.5711 85.1224 33.4428 85.7441 33.017 86.2734C32.4785 86.9398 32.2769 86.958 31.7257 86.307C31.4297 86.482 31.0843 86.6934 30.7897 86.3644C30.4965 86.0381 30.753 85.7133 30.9123 85.4081C30.9532 85.3297 30.9983 85.2527 31.0463 85.1672C30.9419 85.1098 30.8531 85.0622 30.6642 84.96C31.0674 84.7248 31.41 84.526 31.7525 84.3271C31.785 84.3566 31.816 84.386 31.8484 84.414C31.7652 84.5568 31.6792 84.6968 31.6003 84.8424C31.5002 85.0244 31.3649 85.1994 31.3254 85.3941C31.3 85.5145 31.3959 85.6937 31.4931 85.7889C31.534 85.8281 31.768 85.7497 31.8371 85.6629C31.9781 85.4837 32.136 85.2737 32.1613 85.0608C32.2065 84.6912 32.4884 84.6114 32.6787 84.4168C32.7266 84.442 32.776 84.4672 32.8239 84.4924C32.721 84.7836 32.6209 85.0762 32.5138 85.3661C32.401 85.6727 32.3982 85.6727 32.7506 86.0577C32.8422 85.8435 32.9945 85.6601 32.9818 85.4865C32.9466 84.9558 33.2426 84.6884 33.7092 84.4378L33.7106 84.4364Z" fill="#D8A663"/>
<path d="M13.5333 77.9354C13.2739 77.6834 13.0145 77.4314 12.7495 77.1751C13.1879 76.5395 13.7053 76.4722 14.2536 77.0113C14.5779 77.3291 14.8866 77.8416 15.0304 78.3008C13.9477 78.8693 12.4605 78.6187 11.6682 77.6624C12.3054 77.8416 12.8594 77.997 13.4149 78.1524C13.4543 78.0796 13.4938 78.0082 13.5333 77.9354Z" fill="#D8A663"/>
<path d="M10.1682 68.9282C10.921 68.4003 11.3721 68.4829 11.788 69.2726C11.9896 69.6548 12.1319 70.0679 12.3039 70.4711C11.069 70.8576 9.84115 70.4263 9.05029 69.3426C9.43797 69.2558 9.61841 69.6016 9.89612 69.6954C10.1696 69.7892 10.4332 69.9125 10.7011 70.0231C10.7377 69.9839 10.7758 69.9433 10.8124 69.9041C10.608 69.5946 10.4036 69.2852 10.1682 68.9282Z" fill="#D8A663"/>
<path d="M82.3713 81.387C81.8891 82.7942 80.8459 83.6707 79.697 83.6259C80.1693 83.1946 80.798 83.0336 81.1871 82.3811C80.7247 82.4315 80.3737 82.4693 80.0156 82.5086C79.759 81.7525 79.9959 81.3464 80.798 81.2302C80.9362 81.2106 81.0814 81.1994 81.2195 81.2162C81.5875 81.261 81.954 81.324 82.3727 81.387H82.3713Z" fill="#D8A663"/>
<path d="M19.9082 77.1809C20.5637 76.5004 20.9908 76.478 21.5477 77.1221C21.8451 77.4665 22.0749 77.8697 22.3371 78.2478C21.2305 78.8933 19.6756 78.6356 18.8706 77.6541C19.5022 77.8361 20.0519 77.9958 20.6765 78.1764C20.6144 77.6121 20.2268 77.4553 19.9096 77.1809H19.9082Z" fill="#D8A663"/>
<path d="M94.4582 75.428C94.8036 74.8413 95.1673 74.3905 95.2603 73.8262C95.2195 73.7912 95.1786 73.7562 95.1391 73.7198C94.8417 73.9102 94.5442 74.1006 94.2425 74.2938C93.6913 73.661 93.7505 73.1905 94.4765 72.7649C94.6767 72.6473 94.8868 72.5408 95.1039 72.4582C95.3379 72.3686 95.5832 72.3126 95.8256 72.2412C96.1231 73.5882 95.5578 74.9743 94.4582 75.4266V75.428Z" fill="#D8A663"/>
<path d="M46.5615 87.458C46.7871 86.6123 47.1409 86.3855 47.8993 86.6795C48.3462 86.8517 48.755 87.1177 49.1892 87.346C48.4632 88.4479 46.8505 88.9393 45.9243 88.4073C46.4177 88.2939 46.9111 88.1819 47.4031 88.0629C47.4863 88.0433 47.561 87.99 47.8063 87.8738C47.3115 87.7086 46.9605 87.5924 46.5615 87.4594V87.458Z" fill="#D8A663"/>
<path d="M40.342 85.9867C40.5492 85.134 40.9101 84.9113 41.67 85.1746C41.8673 85.2432 42.0619 85.33 42.2423 85.4336C42.482 85.5708 42.7075 85.7318 42.9387 85.8816C42.2282 86.9556 40.7029 87.44 39.6667 86.8884C40.2715 86.7245 40.8918 86.7791 41.5149 86.3451C41.061 86.2065 40.724 86.1029 40.3406 85.9853L40.342 85.9867Z" fill="#D8A663"/>
<path d="M59.9398 91.8769C59.8059 91.9665 59.6719 92.0575 59.5451 92.1429C59.3068 92.0603 59.0813 91.9819 58.8557 91.9035C58.8332 91.9427 58.8106 91.9819 58.7881 92.0211C58.9135 92.1345 59.0319 92.2563 59.1659 92.3571C59.8045 92.8402 59.82 92.9438 59.3026 93.6775C59.1898 93.6271 59.0615 93.5865 58.9502 93.5179C57.9902 92.9256 57.962 92.7016 58.7317 91.8335C58.2834 91.3868 58.7077 91.0088 58.7866 90.5859C60.0244 91.0802 60.0483 91.0774 59.9313 91.8951L59.9398 91.8755V91.8769Z" fill="#D8A663"/>
<path d="M94.7628 82.062C94.5231 81.7413 94.7374 81.4263 94.7318 81.1239C93.9466 80.9264 93.7999 80.7178 93.9212 79.9015C93.9578 79.6523 94.0213 79.3933 94.1355 79.172C94.2102 79.0278 94.4019 78.8584 94.54 78.8584C94.6697 78.8584 94.8206 79.053 94.9207 79.1916C94.9954 79.2952 95.0053 79.4479 95.0574 79.6271C94.8431 79.6383 94.6683 79.6481 94.4315 79.6607C94.3836 79.8217 94.3286 80.0023 94.2708 80.1899C94.9869 80.3146 95.0616 80.288 95.3549 79.7951C95.493 79.5627 95.6185 79.3233 95.7736 79.0432C96.016 79.3709 96.0428 79.6327 95.8948 79.9379C95.5734 80.603 95.2731 81.2793 94.9559 81.9485C94.9334 81.9948 94.8488 82.013 94.7614 82.0606L94.7628 82.062Z" fill="#D8A663"/>
<path d="M79.9268 88.6062C79.7704 88.0601 79.9057 87.6779 80.1143 87.276C80.7332 86.0873 81.4183 84.9602 82.5729 84.1999C82.7012 84.1159 82.8393 84.0445 83.0184 83.9395C83.0578 84.3665 82.9887 84.6241 82.6617 84.8874C81.6086 85.7331 80.8967 86.8574 80.2539 88.0251C80.158 88.1987 80.0608 88.3696 79.9268 88.6062Z" fill="#D8A663"/>
<path d="M53.6806 92.2393C53.3592 91.9304 53.0538 91.9038 52.7643 92.1595C53.2323 92.7406 53.2901 92.7602 53.9217 92.539C54.1402 92.462 54.3559 92.3766 54.6251 92.2743C54.6576 92.616 54.5039 92.8344 54.2488 92.9478C53.4931 93.2853 52.7263 93.5947 51.9114 93.9363C51.9058 93.4911 52.2864 93.3595 52.488 93.127C52.0482 92.4942 52.0707 92.2575 52.6459 91.7633C52.856 91.5827 53.0829 91.3964 53.3367 91.304C53.4974 91.2452 53.761 91.304 53.8991 91.4118C53.9781 91.4734 53.9189 91.7395 53.8836 91.9061C53.8625 92.0069 53.7709 92.0937 53.6778 92.2379L53.6806 92.2393Z" fill="#D8A663"/>
<path d="M91.86 79.7124C91.3131 78.2983 92.2745 75.5442 93.5658 74.5024C93.7237 74.8749 93.6363 75.1647 93.4065 75.5176C92.6368 76.6993 92.1758 78.014 91.9305 79.4016C91.9122 79.5066 91.884 79.6088 91.86 79.7138V79.7124Z" fill="#D8A663"/>
<path d="M99.1991 74.9254C99.3133 75.2054 99.3274 75.4644 99.1385 75.7444C98.2518 77.0592 97.7415 78.5168 97.499 80.0737C97.4962 80.0891 97.4694 80.1017 97.406 80.1605C97.258 79.8861 97.1409 79.6089 97.1818 79.3204C97.4088 77.7565 97.8402 76.2709 98.9369 75.0584C98.982 75.008 99.0398 74.9674 99.0948 74.9268C99.1103 74.9156 99.1385 74.9254 99.1977 74.9254H99.1991Z" fill="#D8A663"/>
<path d="M38.0765 83.7884C37.7536 84.0306 37.4689 84.081 37.0601 83.892C36.2255 83.507 35.3134 83.3627 34.3971 83.3095C33.805 83.2759 33.2101 83.3025 32.5024 83.3025C32.7661 82.9259 33.048 82.8461 33.3384 82.8251C34.9525 82.7103 36.5258 82.8447 37.9707 83.661C38.0088 83.682 38.03 83.731 38.0751 83.7856L38.0765 83.7884Z" fill="#D8A663"/>
<path d="M70.5171 88.4268C70.6256 87.9591 70.6778 87.6343 70.9358 87.3739C72.0241 86.2691 73.173 85.2582 74.7364 84.8676C74.7984 84.8522 74.8675 84.8662 74.969 84.8662C74.8914 85.2358 74.7477 85.4472 74.3741 85.6069C73.0278 86.1781 71.8873 87.0588 70.8681 88.0977C70.7906 88.1762 70.7074 88.2504 70.5171 88.4282V88.4268Z" fill="#D8A663"/>
<path d="M5.6897 81.793C5.98292 82.0814 6.26345 82.3838 6.57077 82.6569C7.52656 83.5082 8.59513 84.1382 9.89771 84.3231C10.119 84.3539 10.4785 84.3189 10.5095 84.6675C10.5434 85.0539 10.1937 85.1421 9.91745 85.2542C9.7948 85.3032 9.6496 85.2976 9.4607 85.3242C9.42263 85.0441 9.3888 84.8047 9.34651 84.4925C8.16235 84.3175 7.06981 83.8988 6.28742 82.9187C6.0238 82.5883 5.72353 82.2746 5.6897 81.793Z" fill="#D8A663"/>
<path d="M10.6547 75.047C11.0635 74.977 11.3596 74.858 11.6359 74.8916C13.1838 75.082 14.6513 75.5035 15.8763 76.527C15.9426 76.5816 15.9962 76.6516 16.1118 76.7762C15.7607 76.8756 15.5098 76.954 15.2138 76.7594C13.9084 75.8983 12.4394 75.4615 10.9141 75.1856C10.8704 75.1772 10.8324 75.1436 10.6533 75.047H10.6547Z" fill="#D8A663"/>
<path d="M30.3288 84.628C30.0172 84.9851 29.7254 85.0313 29.3025 84.9235C27.9238 84.5748 26.5253 84.6504 25.1311 84.8675C25.0057 84.8871 24.8774 84.8871 24.6885 84.9011C25.7063 83.984 27.7786 83.8929 30.3288 84.6266V84.628Z" fill="#D8A663"/>
<path d="M32.4475 96.4834C32.0641 96.7635 31.7596 96.7187 31.3719 96.5674C30.0961 96.0662 28.7413 95.9682 27.3838 95.929C27.2499 95.9248 27.1145 95.929 26.9341 95.8156C27.1892 95.7064 27.4345 95.5397 27.6996 95.4991C29.1812 95.2723 30.9856 95.6531 32.4475 96.4848V96.4834Z" fill="#D8A663"/>
<path d="M13.6136 73.0575C13.973 72.9553 14.3283 72.8237 14.6962 72.7635C14.8471 72.7383 15.098 72.8195 15.1699 72.9343C15.3235 73.1751 15.1375 73.3991 14.933 73.5112C14.778 73.5966 14.4227 73.64 14.3959 73.5854C14.1817 73.1485 13.8927 73.3669 13.6262 73.4649C13.2879 73.5896 12.9594 73.7394 12.5154 73.9256C12.6733 73.577 12.7832 73.3333 12.9172 73.0351C12.834 72.9553 12.7226 72.8783 12.6521 72.7747C12.5069 72.5618 12.4717 72.3112 12.6874 72.1446C12.8551 72.0158 13.1004 71.8842 13.2893 71.9094C13.5529 71.9444 13.6079 72.2202 13.5741 72.4694C13.5558 72.6053 13.5092 72.7383 13.4754 72.8727C13.4641 72.9413 13.4528 73.0099 13.443 73.0799C13.4994 73.0715 13.5558 73.0645 13.6121 73.0561L13.6136 73.0575Z" fill="#D8A663"/>
<path d="M28.0575 82.1316C28.5566 81.776 28.9809 81.4735 29.3939 81.1781C29.8606 81.6584 29.8267 81.818 29.1994 82.3318C28.9344 81.9818 28.6792 82.112 28.4198 82.371C28.1463 82.6441 27.8574 82.9003 27.5275 83.2083V82.2506C26.9128 82.0014 26.7719 81.6079 27.1539 81.2411C27.4217 80.9821 27.8151 81.0647 27.9321 81.4203C27.9955 81.6122 28.0054 81.8222 28.0589 82.133L28.0575 82.1316ZM28.0547 82.2226C28.0392 82.2142 28.0209 82.1946 28.0096 82.1974C27.9899 82.2044 27.9758 82.2254 27.9589 82.2394C27.9899 82.2492 28.0209 82.259 28.0519 82.2688C28.0519 82.2534 28.0533 82.2366 28.0547 82.2212V82.2226Z" fill="#D8A663"/>
<path d="M39.8993 97.2311C39.826 96.8012 39.7809 96.5394 39.7315 96.2566C39.5905 96.2342 39.4792 96.2188 39.3692 96.2006C39.0605 96.1474 38.9237 95.9499 38.9604 95.6573C38.9914 95.4053 39.0464 95.1378 39.3777 95.0986C39.6808 95.0622 39.8683 95.2261 39.9684 95.4851C40.0346 95.6559 40.0572 95.8435 40.1107 96.0661C40.6309 95.6811 40.6352 94.7178 41.6544 94.8004C41.5952 95.1084 41.5698 95.3731 41.4852 95.6167C41.4556 95.7007 41.2357 95.8085 41.1765 95.7749C40.8706 95.6013 40.7479 95.8071 40.6253 96.0045C40.4068 96.356 40.2024 96.7158 39.8993 97.2311Z" fill="#D8A663"/>
<path d="M56.338 100.402C56.4452 99.9628 56.5227 99.575 56.6355 99.1997C56.7088 98.9561 56.8216 98.6663 57.143 98.7237C57.5095 98.7895 57.4461 99.1297 57.4559 99.3957C57.4588 99.4839 57.4122 99.575 57.3728 99.7164C57.236 99.7318 57.0838 99.7486 56.8498 99.7752C56.7285 100.293 56.6002 100.839 56.4578 101.446C56.2788 101.161 56.1223 100.912 55.9757 100.68C55.7417 100.68 55.5133 100.715 55.3061 100.664C55.2046 100.64 55.1144 100.471 55.0622 100.349C54.9494 100.08 55.0326 99.8354 55.268 99.68C55.4978 99.5273 55.722 99.6156 55.8897 99.813C56.0378 99.9866 56.166 100.176 56.3352 100.402H56.338Z" fill="#D8A663"/>
<path d="M90.6322 76.3772C90.5984 76.0523 90.5504 75.7289 90.5349 75.404C90.5236 75.166 90.5645 74.8776 90.8408 74.8538C90.9889 74.8398 91.22 75.0232 91.3046 75.1758C91.4132 75.3732 91.5556 75.6715 91.1792 75.7975C90.8873 75.8955 90.9466 76.1279 90.9705 76.3169C91.0255 76.7454 91.1185 77.1682 91.2088 77.6555C90.9184 77.4357 90.6801 77.2565 90.408 77.0506C90.3051 77.1234 90.205 77.2187 90.0866 77.2733C89.8413 77.3881 89.6496 77.3349 89.4847 77.0968C89.3367 76.8826 89.2775 76.674 89.4043 76.4486C89.5453 76.1979 89.7835 76.1951 90.0204 76.2833C90.1726 76.3408 90.3122 76.4318 90.456 76.5088C90.5067 76.5732 90.5575 76.6376 90.6082 76.7034C90.6364 76.6936 90.6632 76.6824 90.6914 76.6726C90.6717 76.5746 90.6519 76.4766 90.6336 76.3772H90.6322Z" fill="#D8A663"/>
<path d="M36.1974 86.3492C35.8436 86.7679 35.4898 87.1879 35.0781 87.6737V86.6964C35.0034 86.681 34.9019 86.6572 34.799 86.6376C34.4762 86.5746 34.3493 86.3282 34.4424 86.0748C34.5185 85.8675 34.7271 85.6225 34.9273 85.5651C35.1965 85.4881 35.3939 85.7121 35.4447 86.002C35.4757 86.1784 35.4996 86.3548 35.5377 86.6026C35.7069 86.4626 35.8267 86.3674 35.9423 86.268C36.1171 86.1168 36.2905 85.9628 36.4653 85.8101C36.6613 85.6379 36.891 85.5973 37.0954 85.7513C37.1716 85.8101 37.2124 86.03 37.1631 86.1126C37.0419 86.3142 36.8727 86.4976 36.6866 86.646C36.6443 86.6796 36.4597 86.5396 36.3412 86.4794C36.2933 86.436 36.2454 86.3926 36.196 86.3492H36.1974Z" fill="#D8A663"/>
<path d="M9.24636 76.6446C9.5847 76.562 9.92021 76.4626 10.2642 76.4052C10.4728 76.3702 10.735 76.401 10.7632 76.6586C10.7801 76.8042 10.6603 77.0073 10.5391 77.1165C10.3756 77.2635 10.0823 77.4567 9.93854 77.1991C9.73131 76.8294 9.47474 76.9597 9.22663 77.0241C8.86997 77.1165 8.52741 77.2565 8.06079 77.4161C8.22855 77.0815 8.35401 76.8322 8.50062 76.5396C8.41604 76.4598 8.2948 76.387 8.23278 76.2792C8.11154 76.0664 8.0763 75.8339 8.29058 75.6491C8.49498 75.4741 8.73887 75.3677 8.99544 75.5007C9.09553 75.5525 9.19702 75.7149 9.19421 75.8241C9.18998 76.0495 9.11667 76.2736 9.07156 76.4976C9.02927 76.5662 8.98839 76.6348 8.94609 76.7034L9.24636 76.646V76.6446Z" fill="#D8A663"/>
<path d="M71.7308 98.1595C71.5278 97.8151 71.3784 97.563 71.2261 97.304C71.0513 97.339 70.8695 97.437 70.7496 97.3866C70.5805 97.3152 70.3831 97.157 70.3324 96.9946C70.2591 96.7594 70.2661 96.4359 70.5678 96.3421C70.7341 96.2903 70.9907 96.3519 71.1373 96.4583C71.3149 96.5871 71.4179 96.8182 71.5786 97.0394C71.7068 96.5969 71.8055 96.1825 71.9521 95.7862C72.0283 95.5818 72.1622 95.2808 72.4343 95.4068C72.5893 95.4768 72.6669 95.768 72.7233 95.9739C72.7557 96.0915 72.6781 96.2399 72.6401 96.4163C72.165 96.3155 72.0212 96.6151 71.9465 96.9764C71.8732 97.332 71.8154 97.6919 71.7308 98.1595Z" fill="#D8A663"/>
<path d="M55.8645 89.5469C55.6629 89.208 55.5233 88.9756 55.3866 88.7432C54.6958 88.879 54.4519 88.7432 54.4956 88.2181C54.5097 88.0613 54.6197 87.8443 54.7466 87.7841C54.8763 87.7225 55.1258 87.7687 55.2456 87.8625C55.4359 88.0123 55.5628 88.2433 55.7616 88.4954C55.8476 88.1173 55.9025 87.7715 56.0083 87.4411C56.1732 86.9286 56.3945 86.7102 56.6201 86.8264C56.9824 87.0126 56.9246 87.3542 56.8597 87.6805C56.8555 87.7029 56.8428 87.7225 56.8104 87.7953C56.6863 87.8009 56.5369 87.8093 56.293 87.8219C56.1662 88.3315 56.0308 88.8748 55.8645 89.5455V89.5469Z" fill="#D8A663"/>
<path d="M41.7502 89.7443C41.5867 89.6883 41.4584 89.6435 41.261 89.5749C40.9678 90.0314 40.6717 90.4906 40.3179 91.0409C40.2376 90.723 40.1755 90.471 40.0994 90.1686C40.0134 90.1504 39.9091 90.1252 39.8048 90.107C39.5144 90.0566 39.3198 89.9137 39.3565 89.5959C39.3847 89.3453 39.4072 89.068 39.7526 89.0288C40.0867 88.991 40.2841 89.1437 40.3672 89.4629C40.4138 89.6421 40.473 89.8185 40.5336 90.0201C40.7845 89.6477 41.0115 89.2753 41.2765 88.9322C41.409 88.7586 41.5796 88.5332 41.8587 88.7096C42.1083 88.8664 42.0561 89.1199 41.9941 89.3411C41.9532 89.4867 41.8334 89.6099 41.7502 89.7443Z" fill="#D8A663"/>
<path d="M78.6525 84.6578C78.613 84.2181 78.5637 83.7869 78.5397 83.3543C78.5284 83.1512 78.5171 82.9132 78.7822 82.8362C79.081 82.7508 79.2037 82.972 79.3052 83.182C79.3644 83.3024 79.3742 83.4467 79.4179 83.6287C78.9513 83.7729 78.8978 84.1243 78.9795 84.5332C79.0472 84.8706 79.1149 85.2081 79.2093 85.6869C78.8639 85.4041 78.613 85.1983 78.3663 84.9952C77.8644 85.4335 77.5317 85.3957 77.3696 84.872C77.3231 84.7222 77.3414 84.4758 77.4387 84.3778C77.5402 84.2728 77.7911 84.2224 77.9392 84.2672C78.1901 84.3456 78.41 84.5178 78.6511 84.655L78.6525 84.6578Z" fill="#D8A663"/>
<path d="M70.7425 87.0225C70.5297 86.7187 70.3591 86.4751 70.1913 86.2342C69.3526 86.4303 69.1552 86.216 69.3596 85.3479C69.7468 85.2303 70.1481 85.4221 70.5635 85.9234C70.6312 85.551 70.672 85.2219 70.751 84.9013C70.8765 84.393 71.0921 84.141 71.3092 84.2376C71.687 84.4042 71.656 84.7417 71.6053 85.0735C71.6025 85.0959 71.5912 85.1169 71.5672 85.1911C71.1133 85.1855 70.923 85.4571 70.9018 85.9136C70.8863 86.258 70.8046 86.5983 70.7411 87.0239L70.7425 87.0225Z" fill="#D8A663"/>
<path d="M33.9997 15.9617C33.8996 16.0976 33.8263 16.2782 33.6924 16.3594C33.4795 16.4868 33.2272 16.547 32.9241 16.6604C32.6139 16.253 32.2911 15.8301 31.8767 15.2841V12.9192C31.7047 12.894 31.5707 12.8744 31.4382 12.8548C31.6046 12.4693 31.8912 12.0875 32.2982 11.7095C32.2982 12.0175 32.2982 12.2583 32.2982 12.4992C32.2953 13.1922 32.2784 13.8853 32.2925 14.5784C32.2982 14.8262 32.3531 15.0796 32.4293 15.3177C32.6985 16.1564 33.0495 16.3118 33.863 15.9842C33.9038 15.9673 33.9546 15.9701 33.9997 15.9645V15.9617Z" fill="#D8A663"/>
<path d="M84.0503 91.996C84.1265 92.1864 84.1984 92.3643 84.2674 92.5365C84.3506 92.5225 84.4338 92.5085 84.5311 92.4917C84.5804 93.0685 84.0236 93.518 84.2336 94.0991C84.868 94.1677 84.8835 94.1509 85.3332 93.0783C85.4262 93.5726 85.4319 94.0753 85.04 94.4547C84.8637 94.6269 84.5536 94.7585 84.3126 94.7445C84.0306 94.7291 83.9418 94.4057 83.9333 94.1481C83.9206 93.8008 83.8896 93.5082 83.6457 93.2002C83.3807 92.8655 83.6035 92.3153 84.0489 91.9946L84.0503 91.996ZM84.0602 92.7857C84.032 92.7311 84.001 92.6583 83.994 92.6597C83.9347 92.6779 83.8812 92.7087 83.8248 92.7367C83.8502 92.7815 83.8812 92.8655 83.9009 92.8641C83.9573 92.8571 84.008 92.8137 84.0602 92.7857Z" fill="#D8A663"/>
<path d="M74.2075 96.9173C75.0223 96.5869 75.8019 96.3754 76.4645 95.9736C77.1087 95.5829 77.6331 94.9963 78.2252 94.4824C78.6834 94.7583 78.5565 95.1223 78.3718 95.5647C78.1519 95.4891 77.9461 95.4191 77.7375 95.3477C76.3672 96.8823 75.2902 96.9943 74.2089 96.9159L74.2075 96.9173Z" fill="#D8A663"/>
<path d="M13.6293 86.2428C13.4023 86.7903 14.086 86.5411 14.0888 86.8869C13.6025 87.1151 12.9159 86.7203 12.5142 87.328C12.8342 88.028 13.4911 87.6822 14.1664 87.8432C13.6983 87.9804 13.3868 88.1176 13.0668 88.1484C12.8285 88.1708 12.5438 88.1078 12.338 87.9874C11.853 87.7032 11.8727 87.1949 12.3802 86.9667C12.7186 86.8141 12.985 86.6867 13.188 86.317C13.305 86.1028 13.7914 86.0664 14.1227 85.9978C14.3102 85.9586 14.4568 86.114 14.368 86.2988C14.3158 86.4066 14.1227 86.5131 14.0014 86.5047C13.8788 86.4963 13.7674 86.3464 13.6293 86.2428Z" fill="#D8A663"/>
<path d="M35.3389 11.8987C35.1796 11.7825 35.0203 11.6649 34.8258 11.5221C34.2704 11.8203 34.3648 12.3426 34.4847 12.8537C34.6313 13.4781 34.7455 14.104 34.7032 14.7495C34.6848 15.0295 34.6679 15.3039 34.3268 15.3977C34.4903 14.412 34.5143 13.4375 34.1068 12.491C34.0462 12.351 33.987 12.162 34.0335 12.0318C34.2295 11.4745 34.4649 10.9298 34.7144 10.3096C35.0894 10.8542 35.3206 11.3359 35.3389 11.8987Z" fill="#D8A663"/>
<path d="M31.5199 15.9521C31.8455 16.0614 31.9061 16.3288 31.8793 16.613C31.83 17.1451 32.1557 17.5595 32.3121 18.023C32.4404 18.4024 33.3412 18.5102 33.6316 18.1812C33.9953 17.7682 34.4183 17.3859 34.579 16.823C34.6001 16.7488 34.7453 16.7096 34.8327 16.655C34.6678 17.9348 34.0123 18.5984 32.924 18.6096C32.3953 18.6152 32.0034 18.3996 31.8385 17.9068C31.6284 17.2767 31.4325 16.634 31.5199 15.9521Z" fill="#D8A663"/>
<path d="M94.0339 86.4809C94.2961 87.083 94.1424 87.8446 94.8938 88.2563C94.9573 88.1905 95.0094 88.1219 95.0743 88.0687C95.1222 88.0295 95.1871 88.0099 95.3182 87.9441C95.3915 88.2381 95.4845 88.4957 95.5099 88.7589C95.5226 88.8934 95.4478 89.1188 95.3506 89.1608C95.2068 89.2224 94.9897 89.2 94.8374 89.1342C94.7007 89.0754 94.5907 88.9228 94.5047 88.7883C94.0494 88.0813 93.9352 87.3 94.0353 86.4795L94.0339 86.4809Z" fill="#D8A663"/>
<path d="M23.6368 92.9622C23.1391 93.3724 22.516 93.5055 22.4399 94.1747C22.5809 94.2545 22.712 94.3302 22.9192 94.4492C22.6443 94.648 22.4399 94.8454 22.1946 94.9532C22.0565 95.0134 21.7971 94.9854 21.6928 94.8888C21.5884 94.7922 21.5715 94.5598 21.5842 94.3932C21.5941 94.2685 21.6998 94.1439 21.7816 94.0333C22.1551 93.5363 22.6767 93.231 23.2265 92.9692C23.3097 92.93 23.4281 92.9636 23.6353 92.9636L23.6368 92.9622Z" fill="#D8A663"/>
<path d="M8.908 71.8156C8.61619 71.9654 8.41037 72.2987 7.97617 72.2217C7.9226 72.0971 7.8493 71.957 7.79996 71.81C7.48418 70.8747 7.53211 70.7977 8.6176 70.5093C8.70782 70.9517 8.79945 71.3928 8.88967 71.8338L8.908 71.8142V71.8156Z" fill="#D8A663"/>
<path d="M69.0805 90.1533C69.0946 90.4963 69.1778 90.8547 68.7873 91.1586C68.4025 90.971 67.995 90.7721 67.575 90.5677C67.6793 90.1855 67.7624 89.8788 67.8724 89.4756C68.3165 89.7276 68.707 89.9488 69.0974 90.1715L69.0805 90.1533Z" fill="#D8A663"/>
<path d="M18.2938 75.4854C17.9287 75.9054 17.2831 76.0174 17.1745 76.7147C17.3 76.8015 17.4367 76.8939 17.6425 77.0353C17.3846 77.2061 17.1844 77.356 16.9687 77.4778C16.7798 77.5842 16.5345 77.6556 16.4076 77.4358C16.3188 77.2818 16.2977 77.0339 16.3569 76.8673C16.4302 76.6615 16.6022 76.4795 16.7586 76.3142C17.1773 75.8732 17.7003 75.6086 18.2938 75.4854Z" fill="#D8A663"/>
<path d="M90.9016 81.3378C90.9792 81.6823 91.0567 82.0253 91.1512 82.4454C90.834 82.4594 90.6084 82.4776 90.3814 82.4776C90.1728 82.4776 89.9642 82.4594 89.6822 82.4454C89.6202 82.1079 89.5596 81.7817 89.4849 81.3742H90.9326L90.9002 81.3364L90.9016 81.3378Z" fill="#D8A663"/>
<path d="M50.0902 87.5352C50.0818 87.6346 50.0846 87.7382 50.0635 87.8348C50.0169 88.0364 49.9295 88.2338 49.9098 88.4369C49.8675 88.8793 49.945 88.9395 50.5273 88.9381C50.4314 89.2097 50.3778 89.4814 50.2439 89.704C50.165 89.8328 49.9648 89.935 49.8055 89.9602C49.587 89.9952 49.4502 89.8118 49.4432 89.6158C49.4319 89.2755 49.4502 88.9297 49.4953 88.5923C49.5503 88.182 49.7561 87.8348 50.0902 87.5352Z" fill="#D8A663"/>
<path d="M69.0975 90.1713C69.2089 89.8521 69.3188 89.5329 69.4527 89.145C69.7911 89.2682 70.1026 89.3522 70.3789 89.4993C70.4846 89.5553 70.5692 89.7611 70.5608 89.8927C70.5453 90.1363 70.455 90.3744 70.3733 90.7034C69.8982 90.5004 69.4894 90.3268 69.0806 90.1531L69.0975 90.1713Z" fill="#D8A663"/>
<path d="M8.88965 71.835C8.96718 71.7972 9.04613 71.7608 9.12366 71.7202C9.82852 71.3505 10.2599 71.6152 10.2275 72.4175C10.2232 72.5323 10.1302 72.6849 10.0329 72.7465C9.82429 72.8781 9.58464 72.9635 9.26604 73.1092C9.13494 72.6373 9.02216 72.227 8.90797 71.8168L8.88965 71.8364V71.835Z" fill="#D8A663"/>
<path d="M59.9399 91.877L59.9314 91.8966C60.0668 91.8938 60.2091 91.8587 60.336 91.891C61.2918 92.1332 61.4215 92.5462 60.7914 93.4087C60.6546 93.3429 60.5052 93.2841 60.3713 93.2015C59.7707 92.8333 59.7764 92.8319 59.992 92.1262C60.0146 92.0548 59.9596 91.961 59.9413 91.877H59.9399Z" fill="#D8A663"/>
<path d="M45.8751 89.9907C46.1796 90.2945 46.4404 90.5535 46.7322 90.8448C46.5334 91.1542 46.3516 91.4398 46.1162 91.8067C45.799 91.5056 45.541 91.2606 45.2407 90.9764C45.4691 90.6207 45.6636 90.3169 45.8751 89.9893V89.9907Z" fill="#D8A663"/>
<path d="M28.7061 93.4996C28.9302 93.1454 29.1106 92.8583 29.2925 92.5713C30.3343 93.2378 30.3723 93.4814 29.5307 94.2431C29.2812 94.0177 29.0275 93.7894 28.7061 93.4996Z" fill="#D8A663"/>
<path d="M101.916 84.9907C101.847 84.6827 101.776 84.3746 101.711 84.082C102.799 83.5625 103.142 83.8272 103.1 84.8451C102.719 85.0243 102.3 84.9795 101.889 84.9781L101.916 84.9907Z" fill="#D8A663"/>
<path d="M94.9729 76.7705C95.4607 76.6571 95.424 77.0016 95.5523 77.1556C95.8286 77.4846 95.9245 77.4986 96.3995 77.1458C96.5039 77.4118 96.6392 77.6526 96.6815 77.9089C96.7054 78.0573 96.6251 78.3023 96.5095 78.3737C96.3897 78.4479 96.1486 78.4143 96.002 78.3415C95.8455 78.2645 95.7102 78.1063 95.6171 77.9523C95.3958 77.5854 95.2041 77.199 94.9729 76.7705Z" fill="#D8A663"/>
<path d="M90.9016 81.3377L90.934 81.3755C90.879 81.0689 90.8241 80.7636 90.7578 80.3926H92.066C92.1252 80.716 92.1859 81.0409 92.2535 81.4119C91.7474 81.4427 91.3189 81.5925 90.903 81.3391L90.9016 81.3377Z" fill="#D8A663"/>
<path d="M101.916 84.9911L101.889 84.9785C102.055 85.2725 102.268 85.5512 102.206 85.946C101.847 86.1911 101.46 86.0986 101.009 86.0706C100.928 85.75 100.847 85.4308 100.747 85.0387C101.19 85.0205 101.553 85.0065 101.917 84.9911H101.916Z" fill="#D8A663"/>
<path d="M34.4127 96.741C34.4198 96.9104 34.362 97.1597 34.4494 97.2339C34.6101 97.3669 34.8596 97.4551 35.0711 97.4509C35.2614 97.4467 35.4517 97.3011 35.6335 97.2017C35.8253 97.0967 36.0057 96.9721 36.2721 96.8054C35.9662 97.3935 35.3009 97.8962 34.823 97.9648C34.5072 98.0096 34.0927 97.8359 33.9969 97.5713C33.8615 97.1947 33.9221 96.8474 34.2788 96.5996C34.3239 96.6472 34.3676 96.6948 34.4127 96.7424V96.741Z" fill="#D8A663"/>
<path d="M55.6825 93.4253C55.7051 93.6829 55.7262 93.8299 55.729 93.977C55.7403 94.4768 55.7657 94.5048 56.3606 94.5664C56.2816 94.8087 56.2464 95.0677 56.1153 95.2651C56.0194 95.4079 55.7755 95.5675 55.6388 95.5381C55.4936 95.5059 55.316 95.2693 55.292 95.1041C55.2159 94.5524 55.3174 94.0176 55.6811 93.4253H55.6825Z" fill="#D8A663"/>
<path d="M34.4127 96.741C34.3676 96.6934 34.3239 96.6458 34.2788 96.5982C34.5579 96.419 34.8356 96.2384 35.1796 96.0172H34.5058C35.0119 95.2261 35.3347 95.2345 36.2454 96.097C35.9578 96.2048 35.7139 96.3028 35.4672 96.3882C35.1176 96.51 34.7652 96.6234 34.4127 96.7396V96.741Z" fill="#D8A663"/>
<path d="M31.4452 12.8535C31.3606 13.0859 31.2534 13.3142 31.1999 13.5536C31.1646 13.7132 31.1012 13.926 31.3747 13.9932C31.7074 14.0745 31.627 14.3013 31.5481 14.5225C31.5001 14.4469 31.4522 14.3727 31.3719 14.2453C31.2055 14.4693 31.0617 14.6695 30.9123 14.8669C30.7812 15.0406 30.6459 15.21 30.4499 15.3472C30.2427 14.2971 30.8108 13.562 31.4438 12.8535H31.4452Z" fill="#D8A663"/>
<path d="M59.259 98.7603C59.173 99.2909 58.7769 99.7278 58.9729 100.334C59.1026 100.354 59.2421 100.375 59.4381 100.404C59.3563 100.642 59.3225 100.856 59.2125 101.02C59.1392 101.128 58.9447 101.232 58.8263 101.212C58.7107 101.192 58.5556 101.027 58.5316 100.903C58.4005 100.25 58.6458 99.6746 58.9686 99.1257C59.0476 98.9927 59.1604 98.8807 59.259 98.7603Z" fill="#D8A663"/>
<path d="M22.8543 16.7781C22.8092 16.6899 22.7641 16.6017 22.719 16.5135C23.2913 15.3443 24.1019 14.3362 24.866 13.2959C24.9069 13.3211 24.9478 13.3463 24.9886 13.3701C24.2781 14.5056 23.5662 15.6412 22.8557 16.7781H22.8543Z" fill="#D8A663"/>
<path d="M56.1758 37.2402C56.3859 37.67 56.782 37.4796 57.1105 37.516C56.689 38.0635 56.0659 38.0523 55.3342 38.1783C55.6768 37.796 55.9263 37.5174 56.1744 37.2388L56.1758 37.2402Z" fill="#D8A663"/>
<path d="M37.101 14.8373C37.0178 15.3358 36.5864 15.1524 36.3933 15.0838C35.8633 14.8961 35.4953 14.4887 35.3431 13.9286C35.3403 13.9188 35.4516 13.8796 35.5108 13.853C35.821 14.5335 36.3031 14.9381 37.1024 14.8373H37.101Z" fill="#D8A663"/>
<path d="M34.8469 16.5147C35.0048 16.4769 35.2233 16.3565 35.3093 16.4181C35.5927 16.6211 35.9409 16.799 35.9705 17.219C35.7647 17.0846 35.5602 16.9474 35.353 16.8172C35.1867 16.7122 35.0161 16.6155 34.8483 16.5161L34.8469 16.5147Z" fill="#D8A663"/>
<path d="M37.3786 14.4106C37.3814 14.6123 37.4378 14.8503 37.1023 14.8363C37.1939 14.6949 37.287 14.5535 37.3786 14.4106Z" fill="#D8A663"/>
<path d="M35.4615 12.8785C35.2515 12.8183 35.1908 12.7315 35.4093 12.5942C35.4263 12.6894 35.4446 12.7847 35.4615 12.8785Z" fill="#D8A663"/>
<path d="M55.9856 36.6826C56.1519 36.705 56.4001 36.6798 56.1477 36.9514L55.9856 36.6826Z" fill="#D8A663"/>
<path d="M71.1387 68.5265C71.0823 68.5265 71.0273 68.5293 70.9709 68.5307C71.0006 68.5027 71.0287 68.4733 71.0583 68.4453C71.0865 68.4719 71.1133 68.4985 71.1387 68.5265Z" fill="#D8A663"/>
<path d="M38.0865 5.03201C37.2547 4.86819 36.6866 5.45626 36.0269 5.76289C35.6759 5.92671 35.3826 6.20814 35.0443 6.40276C34.7934 6.54698 34.5777 6.79621 34.2281 6.722C34.1548 6.7066 34.0448 6.7626 33.9786 6.81721C33.2624 7.41647 32.5533 8.02414 31.8358 8.62341C31.7357 8.70742 31.6116 8.79283 31.4862 8.81523C31.0111 8.90204 30.6911 9.19187 30.3739 9.52651C30.13 9.78414 29.8297 10.0012 29.5238 10.1846C29.1799 10.3904 29.0671 10.6844 29.06 11.0499C28.7922 11.0625 28.5934 11.0807 28.3735 11.3565C28.0944 11.7066 27.7631 12.1154 27.2316 12.1756H27.2302C27.3247 12.0286 27.3881 11.841 27.5206 11.743C28.0845 11.3229 28.2776 10.6382 28.7231 10.13C29.0826 9.71833 29.435 9.33889 29.8918 9.01826C30.4853 8.60101 30.9702 8.03674 31.5256 7.56209C31.9697 7.18265 32.4434 6.83541 32.9142 6.48677C33.1933 6.27955 33.4922 6.09613 33.7812 5.90011C33.8193 5.8749 33.8432 5.8119 33.8813 5.80489C34.9358 5.60747 35.5518 4.59656 36.5908 4.36273C36.7374 4.32913 36.8755 4.20452 36.9883 4.0925C37.3421 3.74246 37.7495 3.50304 38.2458 3.41763C38.5672 3.36162 38.8435 3.25101 39.1043 3.01718C39.351 2.79596 39.6936 2.61394 40.0178 2.55933C40.4125 2.49352 40.6846 2.2667 40.999 2.08048C41.2344 1.94186 41.4867 1.70664 41.7221 1.71644C42.6822 1.75564 43.4716 1.14097 44.3879 1.08077C45.0773 1.03456 45.6087 0.558508 46.2755 0.4829C46.5236 0.454897 46.7732 0.432494 47.0142 0.408691C47.1397 1.04296 47.1665 1.10037 46.6773 1.32579C46.1007 1.59182 45.4819 1.78645 44.8616 1.93486C44.0538 2.12948 43.208 2.19809 42.5355 2.75955C41.4557 2.89397 40.6226 3.62905 39.6132 3.94129C39.2002 4.0687 38.7984 4.26752 38.4319 4.49575C38.2683 4.59656 38.2007 4.85139 38.0907 5.03621L38.0865 5.03201Z" fill="#D8A663"/>
<path d="M27.2329 12.1757C27.2174 12.3507 27.2019 12.5244 27.1822 12.7582C26.9961 12.5034 27.0125 12.3087 27.2315 12.1743H27.2329V12.1757Z" fill="#D8A663"/>
<path d="M27.3879 35.7094C27.2625 35.7556 27.1144 35.7724 27.0172 35.8508C26.6323 36.1631 26.2686 36.5019 25.8823 36.8141C25.7837 36.8939 25.6356 36.9289 25.5045 36.9527C25.2621 36.9962 25.014 37.0144 24.7123 37.0494C24.7616 36.7833 24.8067 36.5845 25.1253 36.5173C25.4989 36.4375 25.7428 36.2023 25.7357 35.6842C25.3509 35.3076 24.732 35.2586 24.1808 35.1605C23.5958 35.0569 22.9769 35.1367 22.3411 35.1367C22.3411 34.9281 22.3073 34.7671 22.3468 34.6257C22.6287 33.6134 23.3012 33.0071 24.3331 32.7929C24.4219 32.7747 24.5191 32.7621 24.6051 32.7789C25.2113 32.9035 25.8133 33.0449 26.4209 33.1611C26.6591 33.2073 26.958 33.1065 26.9904 33.4986C26.9932 33.5364 27.1455 33.5686 27.23 33.591C27.4063 33.6372 27.5923 33.6596 27.7629 33.7198C28.2817 33.906 28.3874 34.3457 27.9335 34.6131C27.4767 34.8833 27.4077 35.2656 27.3823 35.7094L27.3851 35.7066L27.3879 35.7094Z" fill="#D8A663"/>
<path d="M36.9614 48.3112C37.008 48.1207 37.0545 47.9289 37.1024 47.7385C37.1701 47.7259 37.2871 47.7287 37.2984 47.6965C37.476 47.177 37.772 46.6534 37.7734 46.1311C37.7734 45.4072 38.2344 44.885 38.3697 44.2381L39.2184 44.2409C39.2212 44.3389 39.2226 44.4383 39.2254 44.5363C39.1705 44.6231 39.1155 44.7086 39.0605 44.7954C38.6869 44.7926 38.6291 45.109 38.5305 45.3498C38.3853 45.7069 38.3444 46.1143 38.1583 46.4448C37.8482 46.995 37.6015 47.5383 37.6607 48.1865C37.6719 48.3154 37.6494 48.4778 37.5761 48.5772C37.2208 49.0588 37.4746 49.6497 37.2716 50.1552C37.2645 50.172 37.3703 50.2336 37.4224 50.2742C37.4252 50.319 37.4168 50.361 37.397 50.4002C37.2927 50.4408 37.1898 50.4814 37.1165 50.5094C36.7401 50.221 36.6823 49.6539 36.1396 49.5587C36.0818 49.4201 36.0254 49.2815 35.9676 49.1429C36.2439 48.881 36.0183 48.8124 35.8097 48.7354H35.8139C35.8318 48.3462 35.6946 48.1081 35.4023 48.0213C35.3811 47.9975 35.3755 47.9695 35.3826 47.9387C35.4291 47.7413 35.391 47.5999 35.1485 47.5957L35.133 47.5789C35.0936 47.5033 35.0541 47.4263 35.0146 47.3507C34.9582 47.4319 34.9032 47.5145 34.8469 47.5957C34.6763 48.2202 34.1448 48.4484 33.6176 48.4218C32.3968 48.3588 31.768 48.0451 31.6059 46.6828C31.5312 46.0597 31.5848 45.4394 31.8428 44.8388C32.1261 44.1779 32.8817 43.6948 33.5612 43.9021C33.994 44.0337 34.4479 44.2465 34.7707 44.5503C35.4333 45.172 35.9634 45.9099 36.1452 46.834C36.0733 47.5383 36.3792 48.1123 36.7951 48.7522C36.8726 48.5492 36.9177 48.4316 36.9629 48.314L36.9614 48.3112Z" fill="#D8A663"/>
<path d="M38.3684 44.2378C38.2331 44.8847 37.7735 45.4069 37.7721 46.1308C37.7721 46.6531 37.4747 47.1767 37.297 47.6962C37.2857 47.7284 37.1687 47.7256 37.1011 47.7382C37.3647 45.9936 37.7651 44.2868 38.46 42.6556C38.7335 42.0115 39.0169 41.3815 39.5596 40.897C40.3336 40.2053 41.2048 40.4112 41.5093 41.3969C41.8589 42.5296 41.8138 43.6343 41.1709 44.6718C41.123 44.7503 41.0638 44.8231 41.0004 44.8889C40.9708 44.9183 40.9172 44.9253 40.827 44.9603C40.3603 44.6578 39.9388 44.004 39.2227 44.5346C39.2199 44.4366 39.2185 44.3372 39.2157 44.2392C39.2509 44.2126 39.3045 44.193 39.32 44.1566C39.5963 43.5335 39.6513 43.5153 40.0953 44.0474C40.3237 44.319 40.6085 44.2588 40.8664 44.221C41.1329 44.1832 41.2569 43.969 41.3401 43.6945C41.4867 43.2129 41.4049 42.7438 41.3175 42.286C41.1935 41.6475 40.9665 41.0412 40.304 40.7402C40.077 40.9894 39.9121 41.2639 39.6682 41.4109C39.3933 41.5761 39.3101 41.8099 39.2157 42.0676C39.155 42.2342 39.0761 42.3938 39.0098 42.559C38.7843 43.1135 38.1696 43.5223 38.3684 44.2378Z" fill="#D8A663"/>
<path d="M37.421 50.2728C37.3674 50.2322 37.2631 50.1706 37.2701 50.1538C37.4731 49.6483 37.2194 49.0574 37.5746 48.5758C37.6479 48.4764 37.6705 48.314 37.6592 48.1851C37.6 47.5369 37.8467 46.9936 38.1568 46.4433C38.3429 46.1129 38.3838 45.7055 38.529 45.3484C38.6263 45.1076 38.6855 44.7912 39.059 44.794C38.5642 45.9883 38.1371 47.205 37.8566 48.4694C37.7226 49.0728 37.5676 49.6707 37.4224 50.2714L37.421 50.2728Z" fill="#D8A663"/>
<path d="M36.1381 49.5571C36.6809 49.6523 36.7387 50.2208 37.1151 50.5078C37.1884 50.4784 37.2927 50.4392 37.3956 50.3986L37.1996 51.7526C37.1559 51.7638 37.1137 51.7736 37.07 51.7848C36.9205 51.4207 36.7725 51.0553 36.6217 50.6927C36.4624 50.3132 36.2988 49.9366 36.1367 49.5571H36.1381Z" fill="#D8A663"/>
<path d="M36.9614 48.311C36.9163 48.4286 36.8712 48.5462 36.7936 48.7493C36.3792 48.1094 36.0719 47.5353 36.1438 46.8311C36.3143 47.1335 36.4849 47.4359 36.6527 47.7398C36.757 47.9288 36.8585 48.1192 36.9614 48.3096V48.311Z" fill="#D8A663"/>
<path d="M35.4023 48.0195C35.6946 48.1063 35.8318 48.3444 35.814 48.7336C35.6772 48.4956 35.5391 48.2576 35.4023 48.0195Z" fill="#D8A663"/>
<path d="M35.8096 48.7339C36.0168 48.8109 36.2438 48.8795 35.9675 49.1413C35.9153 49.0055 35.8631 48.8697 35.8096 48.7339Z" fill="#D8A663"/>
<path d="M34.8455 47.5941C34.9018 47.5129 34.9568 47.4303 35.0132 47.3491C35.0527 47.4247 35.0922 47.5017 35.1316 47.5773C35.0358 47.5829 34.9399 47.5885 34.8455 47.5941Z" fill="#D8A663"/>
<path d="M35.1484 47.5942C35.3909 47.5984 35.429 47.7399 35.3825 47.9373C35.3049 47.8225 35.226 47.7077 35.1484 47.5942Z" fill="#D8A663"/>
<path d="M51.8932 51.6489C51.8861 51.6811 51.8777 51.7133 51.8706 51.7469C51.8833 51.7189 51.8946 51.6895 51.9073 51.6615L51.8932 51.6489Z" fill="#D8A663"/>
<path d="M38.3683 44.2378C38.1696 43.5223 38.7842 43.1149 39.0098 42.559C39.076 42.3952 39.155 42.2342 39.2156 42.0676C39.31 41.81 39.3946 41.5761 39.6681 41.4109C39.912 41.2639 40.0769 40.9895 40.3039 40.7402C40.9664 41.0413 41.1934 41.6475 41.3175 42.286C41.4063 42.7439 41.4866 43.2115 41.34 43.6946C41.2568 43.969 41.1328 44.1832 40.8664 44.221C40.607 44.2588 40.3222 44.319 40.0952 44.0474C39.6512 43.5167 39.5962 43.5335 39.3199 44.1566C39.3044 44.193 39.2508 44.2126 39.2156 44.2392L38.3669 44.2364L38.3683 44.2378Z" fill="#D8A663"/>
</g>
<defs>
<clipPath id="clip0_2721_144532">
<rect width="108" height="102" fill="white"/>
</clipPath>
</defs>
</svg>
